<svg xmlns="http://www.w3.org/2000/svg" width="303.001" height="229" viewBox="0 0 303.001 229"><defs><style>.a{fill:none;stroke:#50d8d7;stroke-width:4px;}</style></defs><path class="a" d="M285.5,225H13.5A13.5,13.5,0,0,1,0,211.5V13.5A13.5,13.5,0,0,1,13.5,0h272A13.5,13.5,0,0,1,299,13.5v198A13.5,13.5,0,0,1,285.5,225ZM130.683,181.5H151.82a26.142,26.142,0,0,0-.813,6.5,25.409,25.409,0,0,0,2.032,10.072A25.884,25.884,0,0,0,166.86,211.9a25.425,25.425,0,0,0,10.073,2.032,24.72,24.72,0,0,0,9.981-2.078,27.435,27.435,0,0,0,8.311-5.6,26.629,26.629,0,0,0,5.646-8.221,24.619,24.619,0,0,0,2.078-10.027,26.691,26.691,0,0,0-1.085-7.5,17.136,17.136,0,0,0,5.42-2.755,19.866,19.866,0,0,0,4.2-4.336A21.009,21.009,0,0,0,214.24,168a18.7,18.7,0,0,0,.994-6.007,19.242,19.242,0,0,0-2.078-8.672l-9.032-18.247,17.253-57.542c.118-.412.362-1.287.768-2.755.389-1.4.86-2.894,1.4-4.426a28.913,28.913,0,0,1,1.761-4.065c.63-1.169,1.283-1.761,1.942-1.761.419.06.829.105,1.219.135s.792.045,1.219.045a22.441,22.441,0,0,0,9.711-2.167,27.913,27.913,0,0,0,8.039-5.737,26.509,26.509,0,0,0,5.466-8.311,25.461,25.461,0,0,0,1.987-9.891,24.722,24.722,0,0,0-2.078-9.982,26.476,26.476,0,0,0-5.646-8.266,27.436,27.436,0,0,0-8.311-5.6,24.72,24.72,0,0,0-9.981-2.077,25,25,0,0,0-8.4,1.445,26.172,26.172,0,0,0-7.362,4.019,27.333,27.333,0,0,0-5.736,6.142A26.366,26.366,0,0,0,203.761,32a67.9,67.9,0,0,0-14.453,19.6H66.637a18.972,18.972,0,0,0-7.543,1.535A19.652,19.652,0,0,0,48.661,63.575a18.959,18.959,0,0,0-1.536,7.543,19.458,19.458,0,0,0,.814,5.6L67.45,141.667c.18.538.362,1.1.543,1.671a6.86,6.86,0,0,0,.723,1.58,27.227,27.227,0,0,0-6.233,4.065,26.141,26.141,0,0,0-4.787,5.51,25.14,25.14,0,0,0-3.027,6.639,26.338,26.338,0,0,0-1.039,7.362V181.5H80.367a26.141,26.141,0,0,0-.813,6.5,24.619,24.619,0,0,0,2.077,10.027,26.628,26.628,0,0,0,5.646,8.221,27.6,27.6,0,0,0,8.266,5.6,24.626,24.626,0,0,0,10.027,2.078,25.422,25.422,0,0,0,10.072-2.032,25.881,25.881,0,0,0,13.821-13.821,25.423,25.423,0,0,0,2.032-10.072,26.142,26.142,0,0,0-.812-6.5Zm46.25,12.918a5.844,5.844,0,0,1-3.3-.994,7.727,7.727,0,0,1-2.394-2.529,74.315,74.315,0,0,1-3.839-7.95A87.311,87.311,0,0,0,163.653,175h19.783v13.008a6.126,6.126,0,0,1-1.942,4.517A6.342,6.342,0,0,1,176.933,194.421Zm-71.363,0a6.5,6.5,0,0,1-3.388-.949,5.624,5.624,0,0,1-2.3-2.574L92.291,175h19.783v13.008a6.129,6.129,0,0,1-1.942,4.517A6.346,6.346,0,0,1,105.57,194.421ZM195.721,168.5H66.637a12.824,12.824,0,0,1,3.749-9.168,13.515,13.515,0,0,1,4.11-2.8,12.43,12.43,0,0,1,5.059-1.039H185.243l-6.5-13.008H86.058a5.851,5.851,0,0,1-3.883-1.219,8.747,8.747,0,0,1-2.349-3.388,66.443,66.443,0,0,1-2.575-7.949c-.689-2.7-1.464-5.433-2.3-8.13-.43-1.293-1.084-3.345-1.942-6.1s-1.817-5.851-2.936-9.485q-1.625-5.284-3.388-11.021c-1.155-3.761-2.234-7.363-3.207-10.7-.961-3.307-1.767-6.209-2.394-8.627a25.177,25.177,0,0,1-.949-4.833,6.125,6.125,0,0,1,1.942-4.516,6.347,6.347,0,0,1,4.562-1.9H198.07a60.058,60.058,0,0,1,6.955-14.363,46.593,46.593,0,0,1,10.93-11.562c.71-.532,1.622-1.186,2.71-1.942a35.755,35.755,0,0,1,3.478-2.122,38.977,38.977,0,0,1,3.614-1.716,8.4,8.4,0,0,1,3.117-.723,6.342,6.342,0,0,1,4.561,1.9,6.126,6.126,0,0,1,1.942,4.517,5.786,5.786,0,0,1-1.129,3.793,9.385,9.385,0,0,1-3.208,2.349A41.853,41.853,0,0,0,223,49.8a34.966,34.966,0,0,0-6.007,6.278,41.87,41.87,0,0,0-4.426,7.543,68.735,68.735,0,0,0-3.3,8.943l-19.06,63.684c.347.694.878,1.743,1.625,3.207.71,1.389,1.507,2.94,2.439,4.742.886,1.714,1.814,3.537,2.756,5.42.927,1.854,1.793,3.632,2.574,5.285s1.43,3.116,1.942,4.381a8.6,8.6,0,0,1,.768,2.71,6.227,6.227,0,0,1-1.942,4.607A6.449,6.449,0,0,1,195.721,168.5Zm-18.788-58.444v19.511h1.716l5.871-19.511Zm-25.925,0v19.511h19.511V110.051Zm-26.016,0v19.511H144.5V110.051Zm-25.924,0v19.511h19.511V110.051Zm-14,0,5.872,19.511h1.626V110.051h-7.5Zm91.868-32.43v19.6h11.381l5.872-19.6Zm-25.925,0v19.6h19.511v-19.6Zm-26.016,0v19.6H144.5v-19.6Zm-25.924,0v19.6h19.511v-19.6Zm-23.758,0,5.872,19.6H92.562v-19.6H75.308Z" transform="translate(2 2)"/></svg>