<svg xmlns="http://www.w3.org/2000/svg" width="303.001" height="229" viewBox="0 0 303.001 229"><defs><style>.a{fill:none;stroke:#50d8d7;stroke-width:4px;}</style></defs><path class="a" d="M285.5,225H13.5A13.5,13.5,0,0,1,0,211.5V13.5A13.5,13.5,0,0,1,13.5,0h272A13.5,13.5,0,0,1,299,13.5v198A13.5,13.5,0,0,1,285.5,225ZM80.729,71.118l-32.52,32.429,23.035,23.035-7.407,22.132a58.354,58.354,0,0,0-9.621,14.272A67.787,67.787,0,0,0,49.248,178.3,103.543,103.543,0,0,0,47.4,195.143c-.18,5.895-.271,12.216-.271,18.789H60.133a138.784,138.784,0,0,0,14.273-.723,80.188,80.188,0,0,0,13.5-2.575,64.983,64.983,0,0,0,12.692-5.1,58.375,58.375,0,0,0,11.743-8.311l22.131-7.408,23.035,23.036,32.43-32.52V141.4l24.389-24.39a138.048,138.048,0,0,0,17.3-21.092,141.008,141.008,0,0,0,12.737-23.8,137.146,137.146,0,0,0,7.859-25.79,138.7,138.7,0,0,0,2.665-27.144V6.169H241.881a138.721,138.721,0,0,0-27.145,2.665,137.144,137.144,0,0,0-25.79,7.859,141.01,141.01,0,0,0-23.8,12.737,138.2,138.2,0,0,0-21.092,17.3l-24.389,24.39H80.729Zm-20.6,129.807h0a129.1,129.1,0,0,1,.678-13.052A65.8,65.8,0,0,1,63.43,175a51.969,51.969,0,0,1,5.33-11.743,37.108,37.108,0,0,1,8.807-9.756l6.865,6.865a34.453,34.453,0,0,0-5.014,6.053,35.354,35.354,0,0,0-3.342,6.639,41.69,41.69,0,0,0-1.988,7.181c-.449,2.462-.8,5.075-1.039,7.769,2.7-.24,5.314-.589,7.769-1.039A41.763,41.763,0,0,0,88,184.982a35.357,35.357,0,0,0,6.639-3.343,34.407,34.407,0,0,0,6.052-5.013l6.865,6.865A37.137,37.137,0,0,1,97.8,192.3a51.9,51.9,0,0,1-11.743,5.329,65.806,65.806,0,0,1-12.872,2.62A129.114,129.114,0,0,1,60.134,200.925Zm97.377-6.5h0l-14.9-14.813,34.327-34.417V175l-19.421,19.42ZM138,175h0L86.058,123.059l67.207-67.208a125.471,125.471,0,0,1,13.865-11.969,131.965,131.965,0,0,1,15.493-9.891l44.443,44.444a131.823,131.823,0,0,1-9.891,15.492,125.2,125.2,0,0,1-11.969,13.865L138,175Zm9.756-64.859a3.077,3.077,0,0,0-2.258.9l-32.52,32.429a3.226,3.226,0,0,0-.994,2.349,3.4,3.4,0,0,0,3.253,3.252,3.225,3.225,0,0,0,2.348-.994l32.43-32.52a3.162,3.162,0,0,0-.046-4.471A3.043,3.043,0,0,0,147.755,110.141Zm29.178-45.527a18.973,18.973,0,0,0-7.543,1.535,19.351,19.351,0,0,0-6.188,4.2,20.266,20.266,0,0,0-4.155,6.232,19.3,19.3,0,0,0,0,15.086,19.327,19.327,0,0,0,10.344,10.343,19.294,19.294,0,0,0,15.085,0,20.283,20.283,0,0,0,6.233-4.155,19.348,19.348,0,0,0,4.2-6.187,19.406,19.406,0,0,0,0-15.131A19.9,19.9,0,0,0,184.52,66.149,18.868,18.868,0,0,0,176.933,64.614ZM81.452,118.452h0l-14.814-14.9L86.058,84.126h29.81Zm95.481-21.408a12.953,12.953,0,0,1-9.169-22.087,13.509,13.509,0,0,1,4.11-2.8,12.838,12.838,0,0,1,10.117,0,13.346,13.346,0,0,1,6.91,6.91,12.827,12.827,0,0,1,0,10.117,13.5,13.5,0,0,1-2.8,4.11,12.829,12.829,0,0,1-9.168,3.749Zm53.114-24.752C216.388,58.573,202.5,44.684,188.766,31.01a119.052,119.052,0,0,1,25.88-8.9,127.581,127.581,0,0,1,27.235-2.936,125.144,125.144,0,0,1-2.981,27.19,126.106,126.106,0,0,1-8.853,25.923Z" transform="translate(2 2)"/></svg>