<svg xmlns="http://www.w3.org/2000/svg" width="331.243" height="16.063" viewBox="0 0 331.243 16.063"><defs><style>.a{fill:#707070;}</style></defs><path class="a" d="M1280.829,5978.293c-11.5,0-17.409-1.312-19.458-4.232a2.7,2.7,0,0,1-.238-2.9c.587-1.1,1.963-1.969,4.333-2.737a54.1,54.1,0,0,1,7.89-1.723q2.146-.338,4.708-.652h-129.58v-3H1328.1c13.235-.379,28.379-.628,45.315-.743,7.463-.05,14.931-.072,22.245-.072,44.56,0,83.615.806,84.068.815l-.031,3H1328.14c-10.895.313-20.493.714-28.726,1.2-10.819.643-19.361,1.443-25.389,2.381a53.236,53.236,0,0,0-7.511,1.605,7.538,7.538,0,0,0-2.609,1.2c.512.627,2.032,1.667,6.54,2.292a97.672,97.672,0,0,0,15.163.5c12.427-.327,29.25-1.85,47.06-3.463,22.039-2,47.019-4.258,70.111-4.884,26.684-.721,46.387.874,60.238,4.88l-.834,2.882c-12.525-3.623-29.133-4.925-47.4-4.925-26.245,0-55.913,2.687-81.849,5.036-17.86,1.617-34.729,3.145-47.252,3.474Q1283.108,5978.293,1280.829,5978.293Z" transform="translate(-1148.485 -5962.23)"/></svg>