<svg xmlns="http://www.w3.org/2000/svg" width="311.765" height="88.053" viewBox="0 0 311.765 88.053"><defs><style>.a{fill:#707070;}</style></defs><path class="a" d="M720.03,6051.667c-12.911,0-24.584-.124-34.081-.277-23.022-.372-38.562-.991-38.716-1l-.079,0-.078-.016a163.714,163.714,0,0,1-25.967-7.947c-7.644-3.125-13.828-6.56-18.38-10.208-5.817-4.663-9-9.713-9.465-15.009a18.851,18.851,0,0,1,2.936-11.3c2.419-4.087,6.365-8.321,11.73-12.584a142.882,142.882,0,0,1,22.379-14.053,360.456,360.456,0,0,1,35.085-15.663l.729,1.862c-26.063,10.2-45.223,20.1-56.948,29.419-9.836,7.817-14.519,15.266-13.918,22.14.414,4.731,3.349,9.315,8.723,13.623,4.4,3.528,10.42,6.865,17.886,9.917a161.613,161.613,0,0,0,25.529,7.822c1.241.049,16.454.635,38.6.992,21.226.343,53.343.539,85.806-.472,36.463-1.135,65.917-3.529,87.543-7.116,12.793-2.122,22.935-4.686,30.143-7.622,7.7-3.137,12.152-6.713,13.227-10.631.894-3.255-.554-6.95-4.3-10.981-4.173-4.489-11.24-9.441-21-14.719-35.628-19.258-73.155-25.749-107.541-25.749a314.471,314.471,0,0,0-72.341,8.859,393.183,393.183,0,0,0-63.331,21.083c-15.355,6.622-24.515,11.806-24.606,11.857l-.989-1.738c.091-.052,9.317-5.275,24.753-11.934,9.059-3.908,18.461-7.543,27.943-10.8,11.853-4.075,23.868-7.574,35.71-10.4A315.953,315.953,0,0,1,770.124,5970q6.958,0,13.778.356a236.486,236.486,0,0,1,47.27,7.2,215.162,215.162,0,0,1,23.727,7.68,209.642,209.642,0,0,1,23.456,10.858,130.864,130.864,0,0,1,13,7.915,54.9,54.9,0,0,1,8.52,7.2,20.638,20.638,0,0,1,4.388,6.65,10,10,0,0,1,.378,6.222,13.27,13.27,0,0,1-4.824,6.654,38.9,38.9,0,0,1-9.578,5.3c-7.346,2.992-17.632,5.6-30.572,7.743-21.715,3.6-51.26,6-87.814,7.142C753.875,6051.477,736.006,6051.667,720.03,6051.667Z" transform="translate(-593.205 -5963.614)"/></svg>