<svg xmlns="http://www.w3.org/2000/svg" xmlns:xlink="http://www.w3.org/1999/xlink" width="321.001" height="247" viewBox="0 0 321.001 247"><defs><style>.a{fill:none;stroke:#50d8d7;stroke-width:4px;}.b{filter:url(#a);}</style><filter id="a" x="0" y="0" width="321.001" height="247" filterUnits="userSpaceOnUse"><feOffset input="SourceAlpha"/><feGaussianBlur stdDeviation="3" result="b"/><feFlood flood-color="#14131f"/><feComposite operator="in" in2="b"/><feComposite in="SourceGraphic"/></filter></defs><g class="b" transform="matrix(1, 0, 0, 1, 0, 0)"><path class="a" d="M285.5,225H13.5A13.5,13.5,0,0,1,0,211.5V13.5A13.5,13.5,0,0,1,13.5,0h272A13.5,13.5,0,0,1,299,13.5v198A13.5,13.5,0,0,1,285.5,225ZM131.5,6.169a57.695,57.695,0,0,0-29.448,7.995,59.463,59.463,0,0,0-21,21A57.695,57.695,0,0,0,73.05,64.614V84.126a57.62,57.62,0,0,0,4.291,21.95,58.9,58.9,0,0,0,12.24,18.7,56.776,56.776,0,0,0-30.533,20.054,58.216,58.216,0,0,0-8.762,16.034,54.509,54.509,0,0,0-3.162,18.473v34.6H209.181c2.337,0,4.662-.061,6.91-.181a26.148,26.148,0,0,0,6.414-1.129,19.649,19.649,0,0,0,5.646-2.846,16.029,16.029,0,0,0,4.516-5.33,16.744,16.744,0,0,0,7.678-8.9,24.643,24.643,0,0,0,1.355-5.6,50.87,50.87,0,0,0,.361-6.187v-2.53c0-1.978-.045-3.938-.135-5.826a31,31,0,0,0-.768-5.556,20.7,20.7,0,0,0-1.987-5.194A17.52,17.52,0,0,0,235.377,160V136.066h19.512V6.169Zm84.46,194.756H197.438a13.677,13.677,0,0,1-5.42-1.085,14.055,14.055,0,0,1-4.426-2.981,14.688,14.688,0,0,1-3.026-4.426,13.193,13.193,0,0,1-1.13-5.42,13.629,13.629,0,0,1,3.794-9.575c.491-.553,1.281-1.434,2.348-2.62,1.094-1.215,2.325-2.567,3.659-4.019s2.753-3.008,4.245-4.652c1.47-1.62,2.868-3.124,4.155-4.471s2.443-2.519,3.433-3.479a19.263,19.263,0,0,1,2.033-1.806,7.563,7.563,0,0,1,1.49-.723,5.009,5.009,0,0,1,1.671-.271,5.55,5.55,0,0,1,3.071.768,4.887,4.887,0,0,1,1.761,1.987,8.734,8.734,0,0,1,.769,2.8,27.729,27.729,0,0,1,.18,3.116c0,.674-.015,1.373-.045,2.078-.03.727-.045,1.457-.045,2.168h.059c.634,0,1.282-.015,1.928-.045.666-.03,1.334-.045,1.987-.045a23.753,23.753,0,0,1,3.252.226,8.6,8.6,0,0,1,2.891.9,5.259,5.259,0,0,1,2.032,1.942,6.618,6.618,0,0,1,.769,3.433v13.008a6.47,6.47,0,0,1-1.762,4.7,6.228,6.228,0,0,1-4.652,1.807,6.694,6.694,0,0,1-1.806,4.787A6.219,6.219,0,0,1,215.956,200.925Zm-33.513,0H144.5L170.519,175l-13.008-13.008,13.008-13.008-13.008-12.918a53.7,53.7,0,0,1,11.924,1.3,47.609,47.609,0,0,1,10.84,3.9,37.9,37.9,0,0,1,9.327,6.651,44.384,44.384,0,0,1,7.384,9.564c-2.467,2.528-4.944,5.1-7.362,7.634s-4.831,5.193-7.181,7.9a25.051,25.051,0,0,0-4.065,6.5,19.226,19.226,0,0,0-1.445,7.5,19.746,19.746,0,0,0,1.445,7.452,21.779,21.779,0,0,0,4.064,6.458Zm-41.191,0H121.829l-14.091-56.277,10.84,10.84L131.5,142.48l-6.5-6.413H138l-6.5,6.413L144.5,155.488l10.84-10.84Zm-22.674,0H60.133V179.336a42.513,42.513,0,0,1,3.388-16.847,43.347,43.347,0,0,1,9.3-13.775,44.238,44.238,0,0,1,13.821-9.259,42.512,42.512,0,0,1,16.847-3.388h2.077L92.562,148.984l13.008,13.008L92.562,175l26.014,25.924ZM222.37,160.771h0a11.657,11.657,0,0,0-6.412-10.522V97.043h6.5Zm-90.874-31.3a45.32,45.32,0,0,1-18.293-3.659,43.654,43.654,0,0,1-14.362-10.027,46.643,46.643,0,0,1-9.4-14.9A49.364,49.364,0,0,1,86.058,82.59V77.621h6.5V64.614a25.647,25.647,0,0,1,2.032-10.162,26,26,0,0,1,13.776-13.821A25.32,25.32,0,0,1,118.488,38.6,25.421,25.421,0,0,0,120.52,48.67a26.231,26.231,0,0,0,5.556,8.266,26.859,26.859,0,0,0,8.266,5.6,24.932,24.932,0,0,0,10.072,2.077h26.105V77.621h6.414v6.5a44.3,44.3,0,0,1-3.568,17.66,45.686,45.686,0,0,1-9.756,14.408,46.611,46.611,0,0,1-14.453,9.71A44.276,44.276,0,0,1,131.5,129.472Zm-9.846-23.216a3.12,3.12,0,0,0-2.213.9,2.9,2.9,0,0,0-.949,2.168,3.964,3.964,0,0,0,1.535,2.981,14.353,14.353,0,0,0,3.659,2.3,23.282,23.282,0,0,0,4.291,1.445,16.587,16.587,0,0,0,3.523.5,17.224,17.224,0,0,0,3.568-.5,21.887,21.887,0,0,0,4.29-1.445,15.421,15.421,0,0,0,3.613-2.258,3.909,3.909,0,0,0,1.535-3.026,3.085,3.085,0,0,0-3.071-3.072,2.839,2.839,0,0,0-1.671.633c-.573.421-1.257.877-2.033,1.354a18.951,18.951,0,0,1-2.71,1.355,10.264,10.264,0,0,1-7.091,0,17.714,17.714,0,0,1-2.619-1.355c-.746-.477-1.415-.933-1.987-1.354A2.843,2.843,0,0,0,121.649,106.257Zm3.342-15.718a6.478,6.478,0,0,0,6.5,6.5,6.125,6.125,0,0,0,4.516-1.942,6.344,6.344,0,0,0,1.9-4.562Zm26.016-19.421a6.476,6.476,0,0,0-6.5,6.5v6.5a6.122,6.122,0,0,0,1.942,4.516,6.433,6.433,0,0,0,9.123,0,6.122,6.122,0,0,0,1.942-4.516v-6.5a6.476,6.476,0,0,0-6.5-6.5Zm-38.933,0a6.476,6.476,0,0,0-6.5,6.5v6.5a6.122,6.122,0,0,0,1.942,4.516,6.433,6.433,0,0,0,9.123,0,6.122,6.122,0,0,0,1.942-4.516v-6.5a6.635,6.635,0,0,0-6.5-6.5Zm129.807,51.941H228.874V32.185H172.055a55.721,55.721,0,0,0-7-7.317,42.819,42.819,0,0,0-8.356-5.691h85.183Zm-32.43,0h-43.54a53.833,53.833,0,0,0,10.57-13.008h32.971v13.007Z" transform="translate(11 11)"/></g></svg>