<svg xmlns="http://www.w3.org/2000/svg" width="303.001" height="229" viewBox="0 0 303.001 229"><defs><style>.a{fill:none;stroke:#50d8d7;stroke-width:4px;}</style></defs><path class="a" d="M285.5,225H13.5A13.5,13.5,0,0,1,0,211.5V13.5A13.5,13.5,0,0,1,13.5,0h272A13.5,13.5,0,0,1,299,13.5v198A13.5,13.5,0,0,1,285.5,225ZM157.509,139.051h0v47.42A17.186,17.186,0,0,0,152,195.1a41.58,41.58,0,0,0-1.174,9.982c0,1.446.03,2.92.09,4.381s.091,2.979.091,4.471h77.866V200.925a19.7,19.7,0,0,0-1.671-7.9,18.5,18.5,0,0,0-4.743-6.549V154.4a20.212,20.212,0,0,0,5.285-2.936,19.464,19.464,0,0,0,4.065-4.246,20.392,20.392,0,0,0,2.619-5.239,18.664,18.664,0,0,0,.949-5.917V84.126a25.2,25.2,0,0,0-1.219-7.814,26.926,26.926,0,0,0-3.388-6.91,25.7,25.7,0,0,0-12.1-9.485,30.053,30.053,0,0,0,3.343-9.8,34.906,34.906,0,0,0,.406-4.742c.03-1.589.045-3.382.045-5.33V38.6a31.163,31.163,0,0,0-2.574-12.511,32.977,32.977,0,0,0-7.046-10.343,33.921,33.921,0,0,0-10.388-7,31.9,31.9,0,0,0-25.113,0A33.773,33.773,0,0,0,167,15.7,32.207,32.207,0,0,0,160.041,26a31.862,31.862,0,0,0-2.53,12.6v6.5a33.058,33.058,0,0,0,.678,6.64,31.573,31.573,0,0,0,2.032,6.368L141.251,89.275,122.281,58.11A33.694,33.694,0,0,0,124.63,49.3a40.844,40.844,0,0,0,.316-4.336c.03-1.441.045-3.006.045-4.652V38.6A31.386,31.386,0,0,0,122.417,26,32.672,32.672,0,0,0,105.163,8.743a32.123,32.123,0,0,0-25.2,0A33.782,33.782,0,0,0,69.618,15.7,32.219,32.219,0,0,0,62.663,26a31.862,31.862,0,0,0-2.53,12.6v6.5a30.852,30.852,0,0,0,3.7,14.815,25.706,25.706,0,0,0-12.1,9.485,26.956,26.956,0,0,0-3.388,6.91,25.224,25.224,0,0,0-1.22,7.814v51.941a18.689,18.689,0,0,0,.949,5.917,20.392,20.392,0,0,0,2.665,5.285,19.046,19.046,0,0,0,4.11,4.245,21,21,0,0,0,5.284,2.891v32.068a17.19,17.19,0,0,0-5.51,8.626,41.58,41.58,0,0,0-1.175,9.982c0,1.431.031,2.905.091,4.381s.09,2.987.09,4.471H131.5V200.925a19.6,19.6,0,0,0-1.671-7.95,18.124,18.124,0,0,0-4.833-6.5V138.957a4,4,0,0,0,.588.768l.436.436.241.241a38.223,38.223,0,0,0,3.252,3.071,18.473,18.473,0,0,0,3.388,2.258,15.822,15.822,0,0,0,3.794,1.355,21.225,21.225,0,0,0,4.562.452,19.135,19.135,0,0,0,7.543-1.445,20.05,20.05,0,0,0,6.277-4.336c.351-.35.7-.73,1.039-1.129a6.228,6.228,0,0,1,1.13-1.04Zm58.447,61.874H196.444V188.007h13.008v6.413a6.636,6.636,0,0,1,6.5,6.5Zm-32.52,0H164.015a6.636,6.636,0,0,1,6.5-6.5v-6.413h12.918v12.917Zm-64.859,0H99.067V188.007h13.008v6.413a6.636,6.636,0,0,1,6.5,6.5Zm-32.52,0H66.637a6.346,6.346,0,0,1,1.9-4.562,6.125,6.125,0,0,1,4.516-1.942v-6.413H86.058v12.917Zm129.9-58.445a6.344,6.344,0,0,1-4.562-1.9,6.125,6.125,0,0,1-1.942-4.516V97.043h13.008v39.023a6.124,6.124,0,0,1-1.941,4.516A6.344,6.344,0,0,1,215.956,142.48Zm-149.319,0a6.344,6.344,0,0,1-4.562-1.9,6.125,6.125,0,0,1-1.942-4.516V97.043H73.05v39.023a6.477,6.477,0,0,1-6.413,6.413Zm74.615-7.859a6.123,6.123,0,0,1-4.517-1.942,6.346,6.346,0,0,1-1.9-4.562,6.706,6.706,0,0,1,.813-3.161l5.6-9.756c1.712-3.012,3.475-6.066,5.239-9.078,1.723-2.94,3.486-5.995,5.24-9.078h14.995l-19.873,34.416a5.925,5.925,0,0,1-2.394,2.3A6.691,6.691,0,0,1,141.251,134.621Zm64.949-5.058H170.428V90.629l-1.806,3.162h-15l11.2-19.421a6.45,6.45,0,0,1,2.439-2.394,6.6,6.6,0,0,1,3.252-.858h38.933a12.417,12.417,0,0,1,5.059,1.039,13.346,13.346,0,0,1,6.91,6.91,12.417,12.417,0,0,1,1.039,5.059v9.665H206.2v35.771Zm-94.126,0H76.3V93.791H60.133V84.126a12.673,12.673,0,0,1,.994-4.968,13.246,13.246,0,0,1,2.71-4.11,12.892,12.892,0,0,1,9.213-3.839h39.024a6.161,6.161,0,0,1,5.6,3.162l11.2,19.421H113.881l-1.806-3.162v38.933Zm19.963-4.336v0L115.778,97.043h14.995l8.582,14.9c-1.2,2.223-2.478,4.426-3.794,6.549a53.068,53.068,0,0,0-3.523,6.728Zm57.9-60.613a18.87,18.87,0,0,1-7.588-1.535,19.468,19.468,0,0,1-6.143-4.2,20.4,20.4,0,0,1-4.155-6.188,18.856,18.856,0,0,1-1.536-7.588l6.414-6.5h32.519v6.5a18.857,18.857,0,0,1-1.535,7.588,19.9,19.9,0,0,1-10.388,10.389A18.876,18.876,0,0,1,189.941,64.614ZM199.7,45.1a3.239,3.239,0,1,0,2.3.949A3.152,3.152,0,0,0,199.7,45.1Zm-19.511,0a3.239,3.239,0,1,0,2.3.949A3.126,3.126,0,0,0,180.185,45.1ZM92.562,64.614a18.876,18.876,0,0,1-7.588-1.535A19.9,19.9,0,0,1,74.587,52.69,18.856,18.856,0,0,1,73.05,45.1l6.5-6.5h32.52v6.5a18.856,18.856,0,0,1-1.536,7.588A19.9,19.9,0,0,1,100.15,63.078,18.876,18.876,0,0,1,92.562,64.614ZM102.318,45.1a3.239,3.239,0,1,0,2.3.949A3.153,3.153,0,0,0,102.318,45.1Zm-19.512,0a3.237,3.237,0,1,0,2.3.949A3.149,3.149,0,0,0,82.806,45.1Z" transform="translate(2 2)"/></svg>