<svg xmlns="http://www.w3.org/2000/svg" width="215.975" height="190.999" viewBox="0 0 485.975 155.999">
  <g id="Group_14" data-name="Group 14" transform="translate(-741 -1565)">
    <path id="Union_4" data-name="Union 4" d="M-5693,198a25,25,0,0,1-25-25V34a25,25,0,0,1,25-25h330a25,25,0,0,1,25,25V61.955h53.992a51.513,51.513,0,0,1,11.015-14.94,20.04,20.04,0,0,1,2.754-5.886,20.745,20.745,0,0,1,4.373-4.682,19.885,19.885,0,0,1,5.611-3.064,19,19,0,0,1,6.4-1.1,18.765,18.765,0,0,1,7.607,1.583,20.8,20.8,0,0,1,6.334,4.269,20.069,20.069,0,0,1,4.3,6.3,18.744,18.744,0,0,1,1.584,7.607,19.317,19.317,0,0,1-1.515,7.54,20.1,20.1,0,0,1-4.165,6.333,21.191,21.191,0,0,1-6.127,4.373,17.019,17.019,0,0,1-7.4,1.652c-.32,0-.631-.011-.929-.034s-.608-.057-.93-.1q-.758,0-1.481,1.343a22.1,22.1,0,0,0-1.342,3.1q-.62,1.754-1.066,3.374t-.585,2.1l-13.15,43.856,6.885,13.907a14.615,14.615,0,0,1,1.583,6.61,14.185,14.185,0,0,1-.757,4.578,15.884,15.884,0,0,1-2.1,4.131,15.076,15.076,0,0,1-3.2,3.3,13,13,0,0,1-4.13,2.1,20.251,20.251,0,0,1,.825,5.714,18.68,18.68,0,0,1-1.583,7.643,20.2,20.2,0,0,1-4.3,6.264,20.823,20.823,0,0,1-6.334,4.269,18.757,18.757,0,0,1-7.609,1.583,19.27,19.27,0,0,1-7.676-1.548,19.874,19.874,0,0,1-6.3-4.235,19.9,19.9,0,0,1-4.235-6.3,19.307,19.307,0,0,1-1.548-7.677,19.8,19.8,0,0,1,.62-4.957h-16.111a19.8,19.8,0,0,1,.62,4.957,19.307,19.307,0,0,1-1.548,7.677,19.9,19.9,0,0,1-4.235,6.3,19.885,19.885,0,0,1-6.3,4.235q-.283.121-.569.233A25,25,0,0,1-5363,198Zm392.3-35.94a56.119,56.119,0,0,0,2.926,6.057,5.86,5.86,0,0,0,1.824,1.929,4.432,4.432,0,0,0,2.513.758,4.815,4.815,0,0,0,3.478-1.447,4.651,4.651,0,0,0,1.479-3.443V156h-15.077A66.44,66.44,0,0,1-5300.7,162.059Zm21.583-11.017a4.9,4.9,0,0,0,3.546-1.445,4.724,4.724,0,0,0,1.481-3.512,6.55,6.55,0,0,0-.585-2.065q-.585-1.447-1.481-3.339t-1.961-4.028q-1.068-2.133-2.1-4.13t-1.86-3.615q-.826-1.619-1.238-2.444l14.527-48.538a52.157,52.157,0,0,1,2.513-6.815,31.613,31.613,0,0,1,3.374-5.749,26.549,26.549,0,0,1,4.578-4.786,31.8,31.8,0,0,1,6.128-3.854,7.114,7.114,0,0,0,2.444-1.791,4.39,4.39,0,0,0,.861-2.892,4.649,4.649,0,0,0-1.481-3.443,4.815,4.815,0,0,0-3.476-1.445,6.372,6.372,0,0,0-2.375.551,29.036,29.036,0,0,0-2.754,1.307,27.15,27.15,0,0,0-2.652,1.619q-1.238.859-2.065,1.48a35.324,35.324,0,0,0-8.331,8.813,45.545,45.545,0,0,0-5.3,10.946H-5338v9.915h.083v14.94H-5338V106.5h.083v14.87H-5338v9.846h45.937l4.957,9.915H-5338v9.913Zm-14.32-29.674V106.5h5.783l-4.474,14.87Zm-19.759,0V106.5h14.871v14.87Zm-19.828,0V106.5h14.871v14.87Zm39.586-24.647V81.782h13.151l-4.476,14.94Zm-19.759,0V81.782h14.871v14.94Zm-19.828,0V81.782h14.871v14.94Z" transform="translate(6460 1557)" fill="#090539"/>
    <path id="Union_4_-_Outline" data-name="Union 4 - Outline" d="M-5363,199h-330a25.84,25.84,0,0,1-10.121-2.043,25.912,25.912,0,0,1-8.264-5.571,25.907,25.907,0,0,1-5.572-8.264A25.84,25.84,0,0,1-5719,173V34a25.84,25.84,0,0,1,2.043-10.121,25.907,25.907,0,0,1,5.572-8.264,25.912,25.912,0,0,1,8.264-5.571A25.84,25.84,0,0,1-5693,8h330a25.84,25.84,0,0,1,10.121,2.043,25.912,25.912,0,0,1,8.264,5.571,25.907,25.907,0,0,1,5.572,8.264A25.84,25.84,0,0,1-5337,34V60.955h52.373a52.7,52.7,0,0,1,10.749-14.48,21.126,21.126,0,0,1,2.813-5.911,21.846,21.846,0,0,1,4.583-4.906,20.976,20.976,0,0,1,5.891-3.218,20.086,20.086,0,0,1,6.739-1.159,19.842,19.842,0,0,1,8.008,1.667,21.89,21.89,0,0,1,6.636,4.474,21.145,21.145,0,0,1,4.516,6.61,19.82,19.82,0,0,1,1.668,8.008,20.4,20.4,0,0,1-1.593,7.926,21.19,21.19,0,0,1-4.371,6.644,22.293,22.293,0,0,1-6.414,4.578,18.091,18.091,0,0,1-7.832,1.749c-.346,0-.684-.013-1.005-.037-.273-.021-.557-.051-.846-.09a2.146,2.146,0,0,0-.607.807,21.248,21.248,0,0,0-1.279,2.957c-.4,1.141-.755,2.253-1.045,3.307l-.207.745c-.187.674-.311,1.12-.381,1.364l0,.013-13.037,43.478,6.71,13.554a15.668,15.668,0,0,1,1.687,7.053,15.244,15.244,0,0,1-.81,4.9,16.972,16.972,0,0,1-2.231,4.389,16.155,16.155,0,0,1-3.413,3.523,13.97,13.97,0,0,1-3.526,1.948,21.261,21.261,0,0,1,.617,5.07,19.765,19.765,0,0,1-1.668,8.048,21.291,21.291,0,0,1-4.514,6.571,21.921,21.921,0,0,1-6.635,4.473,19.841,19.841,0,0,1-8.01,1.667,20.354,20.354,0,0,1-8.07-1.629,20.963,20.963,0,0,1-6.613-4.447,20.983,20.983,0,0,1-4.446-6.611,20.387,20.387,0,0,1-1.629-8.072,21.1,21.1,0,0,1,.372-3.957h-13.614a21.064,21.064,0,0,1,.372,3.957,20.389,20.389,0,0,1-1.629,8.071,20.985,20.985,0,0,1-4.447,6.612,20.971,20.971,0,0,1-6.613,4.447l-.247.1a26.092,26.092,0,0,1-9.232,9.916A25.933,25.933,0,0,1-5363,199ZM-5693,10a24.027,24.027,0,0,0-24,24V173a24.027,24.027,0,0,0,24,24h330a23.918,23.918,0,0,0,21.386-13.1l.173-.338.353-.138c.183-.072.364-.146.54-.221a18.983,18.983,0,0,0,5.986-4.023,19.006,19.006,0,0,0,4.023-5.986,18.4,18.4,0,0,0,1.467-7.283,18.88,18.88,0,0,0-.588-4.707l-.322-1.249h18.691l-.322,1.249a18.9,18.9,0,0,0-.588,4.707,18.4,18.4,0,0,0,1.468,7.284,19,19,0,0,0,4.022,5.985,18.971,18.971,0,0,0,5.987,4.023,18.367,18.367,0,0,0,7.282,1.467,17.851,17.851,0,0,0,7.208-1.5,19.924,19.924,0,0,0,6.033-4.065,19.3,19.3,0,0,0,4.09-5.957,17.774,17.774,0,0,0,1.5-7.238,19.345,19.345,0,0,0-.785-5.434l-.278-.95.948-.287a12.072,12.072,0,0,0,3.815-1.939,14.146,14.146,0,0,0,2.991-3.087,14.967,14.967,0,0,0,1.968-3.873,13.249,13.249,0,0,0,.7-4.258,13.7,13.7,0,0,0-1.477-6.163l-7.062-14.263.113-.378,13.149-43.85c.068-.239.19-.679.375-1.343l.207-.743c.3-1.1.668-2.254,1.087-3.439a23.165,23.165,0,0,1,1.4-3.238c.668-1.241,1.462-1.87,2.362-1.87h.071l.07.01c.3.043.589.075.865.1s.558.032.852.032a16.108,16.108,0,0,0,6.973-1.555,20.306,20.306,0,0,0,5.841-4.167,19.2,19.2,0,0,0,3.958-6.021,18.41,18.41,0,0,0,1.438-7.153,17.83,17.83,0,0,0-1.5-7.206,19.156,19.156,0,0,0-4.089-5.99,19.9,19.9,0,0,0-6.033-4.065,17.856,17.856,0,0,0-7.206-1.5,18.091,18.091,0,0,0-6.069,1.043,18.979,18.979,0,0,0-5.33,2.91,19.841,19.841,0,0,0-4.162,4.458,19.124,19.124,0,0,0-2.617,5.594l-.076.267-.2.19a50.752,50.752,0,0,0-10.8,14.653l-.275.559H-5339V34a24.027,24.027,0,0,0-24-24Zm399.559,161.8a5.438,5.438,0,0,1-3.067-.926,6.875,6.875,0,0,1-2.131-2.254l-.011-.019a57.488,57.488,0,0,1-2.978-6.165,65.8,65.8,0,0,0-2.814-5.967l-.787-1.471h17.745v10.913a5.639,5.639,0,0,1-1.78,4.158A5.805,5.805,0,0,1-5293.441,171.8Zm-3.469-4.183a4.831,4.831,0,0,0,1.511,1.594,3.425,3.425,0,0,0,1.958.59,3.819,3.819,0,0,0,2.779-1.162,3.659,3.659,0,0,0,1.178-2.727V157h-12.431c.773,1.537,1.49,3.1,2.137,4.678A55.417,55.417,0,0,0-5296.91,167.62Zm17.789-15.577H-5339V140.129h50.276l-3.957-7.915H-5339V120.369h.083V107.5H-5339V95.722h.083V82.782H-5339V70.868h60.953a46.747,46.747,0,0,1,5.185-10.5,36.495,36.495,0,0,1,8.564-9.061c.558-.418,1.263-.924,2.1-1.5a28.233,28.233,0,0,1,2.749-1.678,30.2,30.2,0,0,1,2.848-1.352,7.371,7.371,0,0,1,2.753-.625,5.8,5.8,0,0,1,4.174,1.73,5.634,5.634,0,0,1,1.782,4.158,5.37,5.37,0,0,1-1.092,3.532,8.127,8.127,0,0,1-2.777,2.051,30.938,30.938,0,0,0-5.932,3.729,25.65,25.65,0,0,0-4.405,4.605,30.761,30.761,0,0,0-3.268,5.568,51.4,51.4,0,0,0-2.464,6.685l-14.414,48.161c.268.533.623,1.231,1.057,2.083.6,1.168,1.223,2.383,1.857,3.61.683,1.322,1.392,2.715,2.105,4.142s1.375,2.785,1.972,4.049,1.107,2.41,1.5,3.392a7.154,7.154,0,0,1,.659,2.44,5.712,5.712,0,0,1-1.782,4.227A5.884,5.884,0,0,1-5279.121,152.043Zm-57.879-2h57.879a3.9,3.9,0,0,0,2.847-1.16,3.73,3.73,0,0,0,1.18-2.8,5.551,5.551,0,0,0-.513-1.69c-.382-.945-.873-2.051-1.458-3.286-.591-1.252-1.248-2.6-1.952-4.009s-1.415-2.8-2.093-4.118c-.636-1.229-1.263-2.447-1.862-3.619-.542-1.061-.959-1.886-1.243-2.452l-.177-.354.114-.379,14.527-48.538a53.37,53.37,0,0,1,2.561-6.943,32.782,32.782,0,0,1,3.479-5.929,27.668,27.668,0,0,1,4.749-4.965,32.936,32.936,0,0,1,6.32-3.978l.008,0a6.171,6.171,0,0,0,2.107-1.529,3.465,3.465,0,0,0,.629-2.251,3.654,3.654,0,0,0-1.18-2.727,3.815,3.815,0,0,0-2.777-1.16,5.436,5.436,0,0,0-2,.476,28.253,28.253,0,0,0-2.661,1.263,26.358,26.358,0,0,0-2.555,1.559c-.812.564-1.5,1.054-2.035,1.458a34.484,34.484,0,0,0-8.1,8.565,44.747,44.747,0,0,0-5.185,10.707l-.226.687H-5337v7.915h.083v16.94H-5337V105.5h.083v16.87H-5337v7.846h45.555l5.957,11.915H-5337Zm45.611-27.674h-3.052V105.5h8.128Zm-1.052-14.87v11.426L-5289,107.5Zm-4.888,14.87H-5314.2V105.5h16.871Zm-14.871-2h12.871V107.5H-5312.2Zm-4.957,2h-16.871V105.5h16.871Zm-14.871-2h12.871V107.5h-12.871Zm48.005-22.647h-10.419V80.782h15.495Zm-8.419-2h6.931l3.877-12.94h-10.808Zm-4.888,2H-5314.2V80.782h16.871Zm-14.871-2h12.871V82.782H-5312.2Zm-4.957,2h-16.871V80.782h16.871Zm-14.871-2h12.871V82.782h-12.871Z" transform="translate(6460 1557)" fill="#50d8d7"/>
    <text id="BUY_ACCOUNTS" data-name="BUY ACCOUNTS" transform="translate(763 1630)" fill="#50d8d7" font-size="45" font-family="NirmalaUI-Bold, Nirmala UI" font-weight="700"><tspan x="0" y="49">BUY ACCOUNTS</tspan></text>
  </g>
</svg>
