<svg xmlns="http://www.w3.org/2000/svg" width="217.526" height="191" viewBox="0 0 487.526 191">
  <g id="Group_18" data-name="Group 18" transform="translate(-133 -1864)">
    <path id="Union_6" data-name="Union 6" d="M-5693,194a25,25,0,0,1-25-25V30a25,25,0,0,1,25-25h345a25,25,0,0,1,25,25V47.472a65.813,65.813,0,0,1,8.768-3.118,63.627,63.627,0,0,1,17.182-2.3,63.638,63.638,0,0,1,17.183,2.3,64.279,64.279,0,0,1,15.414,6.514A64.981,64.981,0,0,1-5251.4,60.974a64.979,64.979,0,0,1,10.106,13.056,64.256,64.256,0,0,1,6.514,15.414,63.631,63.631,0,0,1,2.3,17.183,63.621,63.621,0,0,1-2.3,17.182,64.256,64.256,0,0,1-6.514,15.414,64.938,64.938,0,0,1-10.106,13.056,65.04,65.04,0,0,1-13.056,10.108,64.4,64.4,0,0,1-15.414,6.514,63.694,63.694,0,0,1-17.183,2.3,63.683,63.683,0,0,1-17.182-2.3,65.94,65.94,0,0,1-8.768-3.119V169a25,25,0,0,1-25,25Zm381.8-42.958a13.464,13.464,0,0,0,1.122,5.475,14.266,14.266,0,0,0,3.061,4.464,14.826,14.826,0,0,0,4.492,3.032,13.45,13.45,0,0,0,5.475,1.124,13.444,13.444,0,0,0,5.475-1.124,14.833,14.833,0,0,0,4.493-3.032,14.238,14.238,0,0,0,3.06-4.464,13.441,13.441,0,0,0,1.124-5.475V124.764h-12.129v30.322h-4.042V124.764H-5311.2Zm46.438-32.287a31.163,31.163,0,0,1-.983,7.805,32.347,32.347,0,0,1-2.835,7.271,33.607,33.607,0,0,1-4.464,6.4,32.316,32.316,0,0,1-5.868,5.193v1.966q0,1.853-.056,3.593a25.785,25.785,0,0,1-.337,3.425,17.924,17.924,0,0,1-.9,3.341,16.322,16.322,0,0,1-1.741,3.342,54.684,54.684,0,0,0,16.761-7.807,57.567,57.567,0,0,0,13.084-12.465,56.812,56.812,0,0,0,8.507-15.947,55.387,55.387,0,0,0,3.032-18.249,55.434,55.434,0,0,0-2.022-15.022,57.171,57.171,0,0,0-5.7-13.5,56.274,56.274,0,0,0-8.817-11.427,56.254,56.254,0,0,0-11.427-8.817,57.2,57.2,0,0,0-13.5-5.7,55.421,55.421,0,0,0-15.021-2.022,55.421,55.421,0,0,0-15.021,2.022A57.7,57.7,0,0,0-5323,56.441V86.588a12.545,12.545,0,0,1,1.748-.12h4.044a11.689,11.689,0,0,1,4.717.954,12.3,12.3,0,0,1,3.817,2.583,12.282,12.282,0,0,1,2.583,3.819,11.66,11.66,0,0,1,.956,4.717h-4.044a3.879,3.879,0,0,0-1.207-2.836,3.881,3.881,0,0,0-2.835-1.207H-5323v24.258Zm-47.393,42.339a16.4,16.4,0,0,1-1.741-3.342,18.154,18.154,0,0,1-.9-3.341,26.031,26.031,0,0,1-.336-3.425q-.058-1.741-.057-3.593v-1.966a31.461,31.461,0,0,1-5.924-5.193q-1-1.132-1.889-2.338v19A56.12,56.12,0,0,0-5312.155,161.095Zm25.409-50.032a19.949,19.949,0,0,1-6.4-4.324,20.514,20.514,0,0,1-4.3-6.429,19.729,19.729,0,0,1-1.571-7.834,19.525,19.525,0,0,1,1.571-7.805,20.351,20.351,0,0,1,4.324-6.4,20.389,20.389,0,0,1,6.4-4.324,19.532,19.532,0,0,1,7.805-1.571,19.731,19.731,0,0,1,7.834,1.571,20.18,20.18,0,0,1,6.4,4.3,20.549,20.549,0,0,1,4.322,6.4,19.418,19.418,0,0,1,1.6,7.834,19.636,19.636,0,0,1-1.573,7.861,20.3,20.3,0,0,1-4.324,6.4,20.356,20.356,0,0,1-6.4,4.324,19.662,19.662,0,0,1-7.861,1.573A19.733,19.733,0,0,1-5286.747,111.063Zm1.517-33.5a16.22,16.22,0,0,0-5.137,3.453,16.218,16.218,0,0,0-3.454,5.139,15.88,15.88,0,0,0-1.263,6.317,15.88,15.88,0,0,0,1.263,6.317,16.2,16.2,0,0,0,3.454,5.137,16.589,16.589,0,0,0,5.137,3.481,15.57,15.57,0,0,0,6.317,1.292,15.567,15.567,0,0,0,6.317-1.292,16.613,16.613,0,0,0,5.139-3.481,16.617,16.617,0,0,0,3.481-5.137,15.568,15.568,0,0,0,1.292-6.317,15.568,15.568,0,0,0-1.292-6.317,16.641,16.641,0,0,0-3.481-5.139,16.243,16.243,0,0,0-5.139-3.453,15.863,15.863,0,0,0-6.317-1.263A15.866,15.866,0,0,0-5285.23,77.568Zm3.173,22.349a8.386,8.386,0,0,1-2.556-1.741,7.987,7.987,0,0,1-1.712-2.556,7.975,7.975,0,0,1-.617-3.144,7.975,7.975,0,0,1,.617-3.144,7.971,7.971,0,0,1,1.712-2.556,7.988,7.988,0,0,1,2.556-1.712,7.986,7.986,0,0,1,3.144-.618,7.992,7.992,0,0,1,3.146.618,7.984,7.984,0,0,1,2.555,1.712,8.374,8.374,0,0,1,1.741,2.556,7.686,7.686,0,0,1,.646,3.144,7.891,7.891,0,0,1-.646,3.173,8.294,8.294,0,0,1-1.741,2.583,7.984,7.984,0,0,1-2.555,1.712,7.992,7.992,0,0,1-3.146.618A7.686,7.686,0,0,1-5282.057,99.917Z" transform="translate(5852 1860)" fill="#090539"/>
    <path id="Union_6_-_Outline" data-name="Union 6 - Outline" d="M-5348,195h-345a25.837,25.837,0,0,1-10.121-2.044,25.912,25.912,0,0,1-8.264-5.572,25.909,25.909,0,0,1-5.572-8.264A25.838,25.838,0,0,1-5719,169V30a25.842,25.842,0,0,1,2.043-10.121,25.91,25.91,0,0,1,5.572-8.264,25.907,25.907,0,0,1,8.264-5.572A25.838,25.838,0,0,1-5693,4h345a25.836,25.836,0,0,1,10.12,2.044,25.915,25.915,0,0,1,8.264,5.572,25.918,25.918,0,0,1,5.572,8.264A25.842,25.842,0,0,1-5322,30v15.96a67.565,67.565,0,0,1,7.5-2.571,64.913,64.913,0,0,1,17.45-2.34,64.932,64.932,0,0,1,17.452,2.34,65.583,65.583,0,0,1,15.652,6.615,66.283,66.283,0,0,1,13.256,10.262,66.262,66.262,0,0,1,10.261,13.256,65.555,65.555,0,0,1,6.615,15.652,64.924,64.924,0,0,1,2.34,17.451,64.909,64.909,0,0,1-2.34,17.45,65.58,65.58,0,0,1-6.615,15.652,66.237,66.237,0,0,1-10.261,13.256,66.336,66.336,0,0,1-13.256,10.263,65.694,65.694,0,0,1-15.652,6.615,64.99,64.99,0,0,1-17.452,2.339,64.971,64.971,0,0,1-17.45-2.339,67.686,67.686,0,0,1-7.5-2.572V169a25.838,25.838,0,0,1-2.043,10.12,25.925,25.925,0,0,1-5.572,8.264,25.914,25.914,0,0,1-8.264,5.572A25.835,25.835,0,0,1-5348,195ZM-5693,6a24.027,24.027,0,0,0-24,24V169a24.027,24.027,0,0,0,24,24h345a24.027,24.027,0,0,0,24-24v-4.75l1.4.615a65.246,65.246,0,0,0,8.635,3.072,62.975,62.975,0,0,0,16.913,2.265,62.994,62.994,0,0,0,16.915-2.265,63.7,63.7,0,0,0,15.175-6.412,64.353,64.353,0,0,0,12.856-9.954,64.238,64.238,0,0,0,9.952-12.855,63.57,63.57,0,0,0,6.412-15.175,62.914,62.914,0,0,0,2.267-16.913,62.929,62.929,0,0,0-2.267-16.914,63.562,63.562,0,0,0-6.412-15.175,64.283,64.283,0,0,0-9.952-12.856,64.281,64.281,0,0,0-12.856-9.952,63.585,63.585,0,0,0-15.175-6.412,62.939,62.939,0,0,0-16.915-2.266,62.914,62.914,0,0,0-16.913,2.266,65.135,65.135,0,0,0-8.636,3.07L-5324,49V30a24.027,24.027,0,0,0-24-24Zm395.95,160.138a14.5,14.5,0,0,1-5.877-1.208,15.892,15.892,0,0,1-4.792-3.235,15.338,15.338,0,0,1-3.274-4.774,14.517,14.517,0,0,1-1.207-5.877V123.764h14.129v30.322h2.042V123.764h14.129v27.278a14.5,14.5,0,0,1-1.208,5.878,15.3,15.3,0,0,1-3.273,4.774,15.892,15.892,0,0,1-4.793,3.236A14.5,14.5,0,0,1-5297.05,166.137Zm-13.149-40.373v25.278a12.531,12.531,0,0,0,1.038,5.073,13.339,13.339,0,0,0,2.848,4.154,13.9,13.9,0,0,0,4.191,2.829,12.52,12.52,0,0,0,5.073,1.039,12.513,12.513,0,0,0,5.072-1.039,13.9,13.9,0,0,0,4.194-2.829,13.3,13.3,0,0,0,2.846-4.154,12.513,12.513,0,0,0,1.039-5.073V125.764h-10.129v30.322h-6.042V125.764Zm25.934,37.009,1.488-2.233a15.427,15.427,0,0,0,1.636-3.137,17.034,17.034,0,0,0,.849-3.155,24.93,24.93,0,0,0,.324-3.294c.037-1.145.055-2.343.055-3.561V144.9l.433-.3a31.456,31.456,0,0,0,5.687-5.033,32.786,32.786,0,0,0,4.332-6.212,31.517,31.517,0,0,0,2.748-7.047,30.252,30.252,0,0,0,.935-6.556H-5324V93.5h10.778a4.863,4.863,0,0,1,3.542,1.5,4.93,4.93,0,0,1,1.4,2.543h2.1a10.488,10.488,0,0,0-.83-3.317,11.346,11.346,0,0,0-2.374-3.512,11.366,11.366,0,0,0-3.51-2.374,10.753,10.753,0,0,0-4.317-.871h-4.044a11.6,11.6,0,0,0-1.609.11l-1.139.16V55.832l.542-.279A58.969,58.969,0,0,1-5312.34,51.2a56.675,56.675,0,0,1,15.29-2.059,56.675,56.675,0,0,1,15.29,2.059,58.471,58.471,0,0,1,13.74,5.8,57.512,57.512,0,0,1,11.629,8.973,57.527,57.527,0,0,1,8.973,11.629,58.441,58.441,0,0,1,5.8,13.739,56.7,56.7,0,0,1,2.059,15.292,56.634,56.634,0,0,1-3.087,18.576,58.066,58.066,0,0,1-8.656,16.226,58.835,58.835,0,0,1-13.31,12.68,55.928,55.928,0,0,1-17.065,7.949Zm6.353-16.826v1.446c0,1.239-.019,2.459-.056,3.625a26.9,26.9,0,0,1-.351,3.558,19.022,19.022,0,0,1-.948,3.526q-.244.653-.562,1.314a53.628,53.628,0,0,0,14.076-6.95,56.839,56.839,0,0,0,12.859-12.249,56.078,56.078,0,0,0,8.357-15.669,54.644,54.644,0,0,0,2.977-17.922,54.7,54.7,0,0,0-1.985-14.752,56.431,56.431,0,0,0-5.6-13.269,55.53,55.53,0,0,0-8.661-11.225,55.514,55.514,0,0,0-11.225-8.661,56.471,56.471,0,0,0-13.27-5.6,54.681,54.681,0,0,0-14.751-1.985,54.681,54.681,0,0,0-14.751,1.985,57.112,57.112,0,0,0-10.2,3.932V85.488q.372-.02.748-.02h4.044a12.737,12.737,0,0,1,5.116,1.037,13.35,13.35,0,0,1,4.125,2.793,13.341,13.341,0,0,1,2.793,4.126,12.708,12.708,0,0,1,1.039,5.116v1h-6.044v-1a2.893,2.893,0,0,0-.914-2.128,2.892,2.892,0,0,0-2.128-.914H-5322v22.258h58.238v1a32.3,32.3,0,0,1-1.015,8.055,33.5,33.5,0,0,1-2.922,7.495,34.78,34.78,0,0,1-4.6,6.592A33.462,33.462,0,0,1-5277.913,145.947Zm-31.929,16.819-2.578-.707a57.376,57.376,0,0,1-11.037-4.277l-.543-.279V134.846l1.806,2.458c.572.778,1.188,1.541,1.832,2.267a30.605,30.605,0,0,0,5.736,5.029l.439.3v2.5c0,1.232.019,2.43.057,3.56a25.2,25.2,0,0,0,.323,3.295,17.241,17.241,0,0,0,.849,3.156,15.5,15.5,0,0,0,1.636,3.137ZM-5322,156.279a54.991,54.991,0,0,0,7.733,3.144q-.321-.665-.566-1.321a19.23,19.23,0,0,1-.948-3.525,27.211,27.211,0,0,1-.349-3.558c-.038-1.151-.058-2.371-.058-3.626v-1.441a32.575,32.575,0,0,1-5.672-5.055l-.14-.159Zm43.087-42.643a20.817,20.817,0,0,1-8.227-1.653,21.044,21.044,0,0,1-6.718-4.54,21.608,21.608,0,0,1-4.5-6.739,20.814,20.814,0,0,1-1.652-8.227,20.61,20.61,0,0,1,1.653-8.2,21.446,21.446,0,0,1,4.535-6.713,21.481,21.481,0,0,1,6.712-4.535,20.617,20.617,0,0,1,8.2-1.653,20.817,20.817,0,0,1,8.227,1.652,21.27,21.27,0,0,1,6.716,4.509,21.638,21.638,0,0,1,4.532,6.708,20.5,20.5,0,0,1,1.685,8.233,20.707,20.707,0,0,1-1.655,8.257,21.389,21.389,0,0,1-4.535,6.713,21.451,21.451,0,0,1-6.712,4.535A20.749,20.749,0,0,1-5278.913,113.635Zm0-40.261a18.625,18.625,0,0,0-7.41,1.49,19.48,19.48,0,0,0-6.09,4.113,19.442,19.442,0,0,0-4.112,6.09,18.623,18.623,0,0,0-1.49,7.409,18.825,18.825,0,0,0,1.491,7.441,19.617,19.617,0,0,0,4.087,6.118,19.049,19.049,0,0,0,6.083,4.108,18.824,18.824,0,0,0,7.44,1.492,18.759,18.759,0,0,0,7.466-1.491,19.454,19.454,0,0,0,6.09-4.112,19.409,19.409,0,0,0,4.112-6.09,18.733,18.733,0,0,0,1.492-7.466,18.508,18.508,0,0,0-1.519-7.435,19.643,19.643,0,0,0-4.112-6.092,19.276,19.276,0,0,0-6.088-4.084A18.826,18.826,0,0,0-5278.913,73.374Zm0,36.329a16.637,16.637,0,0,1-6.718-1.375,17.673,17.673,0,0,1-5.443-3.691,17.272,17.272,0,0,1-3.666-5.45,16.947,16.947,0,0,1-1.344-6.711,16.946,16.946,0,0,1,1.344-6.711,17.3,17.3,0,0,1,3.667-5.452,17.292,17.292,0,0,1,5.45-3.665,16.936,16.936,0,0,1,6.711-1.344,16.928,16.928,0,0,1,6.711,1.344,17.32,17.32,0,0,1,5.452,3.664,17.721,17.721,0,0,1,3.69,5.445,16.633,16.633,0,0,1,1.375,6.718,16.633,16.633,0,0,1-1.375,6.718,17.688,17.688,0,0,1-3.69,5.443,17.689,17.689,0,0,1-5.444,3.69A16.633,16.633,0,0,1-5278.913,109.7Zm0-32.4a14.944,14.944,0,0,0-5.923,1.182,15.3,15.3,0,0,0-4.824,3.241,15.312,15.312,0,0,0-3.242,4.826,14.961,14.961,0,0,0-1.182,5.923A14.954,14.954,0,0,0-5292.9,98.4a15.274,15.274,0,0,0,3.241,4.824,15.679,15.679,0,0,0,4.832,3.273,14.646,14.646,0,0,0,5.916,1.207A14.643,14.643,0,0,0-5273,106.5a15.7,15.7,0,0,0,4.833-3.273,15.7,15.7,0,0,0,3.272-4.832,14.642,14.642,0,0,0,1.208-5.916,14.642,14.642,0,0,0-1.208-5.916,15.714,15.714,0,0,0-3.273-4.833,15.321,15.321,0,0,0-4.825-3.24A14.938,14.938,0,0,0-5278.913,77.3Zm0,24.258a8.714,8.714,0,0,1-3.549-.731,9.429,9.429,0,0,1-2.857-1.947,9.021,9.021,0,0,1-1.926-2.874,9.007,9.007,0,0,1-.7-3.534,9.011,9.011,0,0,1,.7-3.534,9.009,9.009,0,0,1,1.925-2.872,9.028,9.028,0,0,1,2.874-1.927,9.014,9.014,0,0,1,3.534-.7,9.021,9.021,0,0,1,3.535.7,9.019,9.019,0,0,1,2.872,1.925,9.411,9.411,0,0,1,1.949,2.859,8.717,8.717,0,0,1,.731,3.548,8.928,8.928,0,0,1-.728,3.57,9.325,9.325,0,0,1-1.95,2.892,9.025,9.025,0,0,1-2.873,1.926A9.023,9.023,0,0,1-5278.913,101.563Zm0-16.117a7.026,7.026,0,0,0-2.754.539,7.027,7.027,0,0,0-2.239,1.5,7,7,0,0,0-1.5,2.237,7.02,7.02,0,0,0-.539,2.755,7.021,7.021,0,0,0,.538,2.754,7.023,7.023,0,0,0,1.5,2.239A7.419,7.419,0,0,0-5281.652,99a6.724,6.724,0,0,0,2.739.56,7.035,7.035,0,0,0,2.756-.54,7.018,7.018,0,0,0,2.238-1.5,7.324,7.324,0,0,0,1.53-2.274,6.933,6.933,0,0,0,.563-2.774,6.73,6.73,0,0,0-.56-2.74,7.418,7.418,0,0,0-1.534-2.254,7.019,7.019,0,0,0-2.236-1.5A7.037,7.037,0,0,0-5278.913,85.446Z" transform="translate(5852 1860)" fill="#50d8d7"/>
    <text id="LOL_SMURF" data-name="LOL SMURF" transform="translate(191 1927)" fill="#50d8d7" font-size="49" font-family="NirmalaUI-Bold, Nirmala UI" font-weight="700"><tspan x="0" y="53">LOL SMURF</tspan></text>
  </g>
</svg>
