<svg xmlns="http://www.w3.org/2000/svg" width="216.025" height="191.001" viewBox="0 0 546.025 191.001">
  <g id="Group_17" data-name="Group 17" transform="translate(-741 -1864)">
    <path id="Union_8" data-name="Union 8" d="M-5693,194a25,25,0,0,1-25-25V30a25,25,0,0,1,25-25h307a25,25,0,0,1,25,25v74.408a41.415,41.415,0,0,1,4.479-2.536,42.964,42.964,0,0,1-4.281-18.73q0-3.614.034-7.191t.032-7.192a42.509,42.509,0,0,1,1.54-11.472,43.621,43.621,0,0,1,4.348-10.335,42.3,42.3,0,0,1,6.791-8.764,45.1,45.1,0,0,1,8.763-6.789,42.229,42.229,0,0,1,10.3-4.383,42.5,42.5,0,0,1,11.472-1.538,42.886,42.886,0,0,1,11.507,1.538A42.1,42.1,0,0,1-5295.68,31.4a44.3,44.3,0,0,1,8.73,6.789,44.348,44.348,0,0,1,6.789,8.729,41.264,41.264,0,0,1,2.992,6.146,43.285,43.285,0,0,1,3.321-7.112,42.272,42.272,0,0,1,6.791-8.764A45.227,45.227,0,0,1-5258.3,30.4a42.329,42.329,0,0,1,10.3-4.383,42.527,42.527,0,0,1,11.474-1.538,42.876,42.876,0,0,1,11.5,1.538A42.142,42.142,0,0,1-5214.68,30.4a44.347,44.347,0,0,1,8.729,6.789,44.305,44.305,0,0,1,6.791,8.729,42.227,42.227,0,0,1,4.381,10.337,42.855,42.855,0,0,1,1.539,11.5q0,2.544.067,5.152t.067,5.15q0,3.078-.168,5.954a53.29,53.29,0,0,1-.634,5.686,41.526,41.526,0,0,1-1.339,5.587,42.859,42.859,0,0,1-2.207,5.585,41.217,41.217,0,0,1,9.7,6.557,41.6,41.6,0,0,1,7.392,8.828,42.9,42.9,0,0,1,4.717,10.5,40.393,40.393,0,0,1,1.67,11.574v35.187h-81v1h-106.638A25.01,25.01,0,0,1-5386,194Zm394-29.112V138.334a40.159,40.159,0,0,1,1.67-11.506,42.753,42.753,0,0,1,4.75-10.536,42.467,42.467,0,0,1,5.955-7.487q-.852-.278-1.73-.511a39.237,39.237,0,0,1-13.112,9.9,37.658,37.658,0,0,1-16.055,3.479,37.721,37.721,0,0,1-16.021-3.479,38.45,38.45,0,0,1-13.078-9.9,30.688,30.688,0,0,0-9.567,4.414,34.1,34.1,0,0,0-4.813,4.028v48.151Zm30.156-56.54c.03.027.06.053.089.08a41.675,41.675,0,0,1,7.393,8.83,42.883,42.883,0,0,1,4.714,10.5,40.362,40.362,0,0,1,1.673,11.574v24.553h71.367V138.334a31.626,31.626,0,0,0-1.739-10.436,32.391,32.391,0,0,0-4.883-9.131,32.445,32.445,0,0,0-7.492-7.092,30.993,30.993,0,0,0-9.634-4.381,39.245,39.245,0,0,1-13.11,9.9,37.673,37.673,0,0,1-16.054,3.477,37.761,37.761,0,0,1-16.023-3.477,38.479,38.479,0,0,1-13.076-9.9A31.935,31.935,0,0,0-5268.843,108.348Zm-13.867,10.486a32.058,32.058,0,0,0-4.918,9.1,31.333,31.333,0,0,0-1.739,10.4v25.554h24.76V139.334a31.633,31.633,0,0,0-1.739-10.436,32.393,32.393,0,0,0-4.884-9.131,32.226,32.226,0,0,0-6.33-6.26A33.4,33.4,0,0,0-5282.71,118.833Zm-68.459-35.691a32.889,32.889,0,0,0,2.643,13.11,34.267,34.267,0,0,0,7.191,10.737,33.547,33.547,0,0,0,10.7,7.224,32.862,32.862,0,0,0,13.11,2.643,32.311,32.311,0,0,0,13.078-2.675,34.6,34.6,0,0,0,10.7-7.258,34.088,34.088,0,0,0,7.226-10.7,32.654,32.654,0,0,0,2.642-13.077v-4.75h-4.75V68.759h-19.333a18.376,18.376,0,0,1-7.458-1.538,19.819,19.819,0,0,1-6.122-4.147,19.343,19.343,0,0,1-4.114-6.122,18.733,18.733,0,0,1-1.5-7.458A18.66,18.66,0,0,0-5334.645,51a19.384,19.384,0,0,0-6.087,4.114,19.288,19.288,0,0,0-4.114,6.12,18.878,18.878,0,0,0-1.505,7.525v9.633h-4.817Zm81-1a32.875,32.875,0,0,0,2.642,13.112,34.211,34.211,0,0,0,7.191,10.735,33.545,33.545,0,0,0,10.7,7.224,32.863,32.863,0,0,0,13.112,2.643,32.319,32.319,0,0,0,13.078-2.675,34.609,34.609,0,0,0,10.7-7.258,34.086,34.086,0,0,0,7.225-10.7,32.648,32.648,0,0,0,2.641-13.077v-4.75h-4.749V67.759h-19.333a18.384,18.384,0,0,1-7.459-1.538,19.785,19.785,0,0,1-6.119-4.147,19.263,19.263,0,0,1-4.114-6.122,18.734,18.734,0,0,1-1.505-7.458A18.677,18.677,0,0,0-5253.646,50a19.464,19.464,0,0,0-6.087,4.114,19.3,19.3,0,0,0-4.113,6.12,18.878,18.878,0,0,0-1.505,7.525v9.633h-4.816Zm-8.286,19.73c.179.088.358.177.537.265q1.171-.667,2.4-1.266-.7-1.462-1.28-2.942Q-5277.513,99.892-5278.454,101.873Zm-32.913,7.56q-.6-.469-1.438-1a13.165,13.165,0,0,0-1.94-1,6.545,6.545,0,0,0-2.576-.468,6.3,6.3,0,0,0-2.542.468,13.777,13.777,0,0,0-1.907,1q-.835.536-1.471,1a2.1,2.1,0,0,1-1.238.468,2.192,2.192,0,0,1-1.606-.67,2.19,2.19,0,0,1-.668-1.606,2.854,2.854,0,0,1,1.1-2.173,10.007,10.007,0,0,1,2.643-1.639,18.011,18.011,0,0,1,3.145-1.038,12.071,12.071,0,0,1,2.542-.367,12.233,12.233,0,0,1,2.61.367,18,18,0,0,1,3.143,1.038,9.943,9.943,0,0,1,2.642,1.639,2.844,2.844,0,0,1,1.1,2.173,2.132,2.132,0,0,1-.7,1.606,2.3,2.3,0,0,1-1.639.67A1.96,1.96,0,0,1-5311.366,109.432Zm81-1q-.6-.469-1.438-1a12.871,12.871,0,0,0-1.939-1,6.553,6.553,0,0,0-2.576-.468,6.306,6.306,0,0,0-2.543.468,13.769,13.769,0,0,0-1.906,1q-.835.534-1.471,1a2.1,2.1,0,0,1-1.238.468,2.191,2.191,0,0,1-1.606-.67,2.184,2.184,0,0,1-.669-1.6,2.855,2.855,0,0,1,1.1-2.174,9.981,9.981,0,0,1,2.641-1.639,18.006,18.006,0,0,1,3.144-1.038,12.078,12.078,0,0,1,2.543-.367,12.228,12.228,0,0,1,2.609.367,18.006,18.006,0,0,1,3.144,1.038,10.014,10.014,0,0,1,2.642,1.639,2.853,2.853,0,0,1,1.1,2.174,2.131,2.131,0,0,1-.7,1.6,2.3,2.3,0,0,1-1.639.67A1.966,1.966,0,0,1-5230.367,108.432Zm-90.464-12.28a4.625,4.625,0,0,1-1.438-3.378h9.633a4.648,4.648,0,0,1-1.406,3.412,4.643,4.643,0,0,1-3.411,1.4A4.624,4.624,0,0,1-5320.832,96.153Zm81-1a4.628,4.628,0,0,1-1.436-3.377h9.632a4.642,4.642,0,0,1-1.405,3.411,4.645,4.645,0,0,1-3.412,1.4A4.628,4.628,0,0,1-5239.833,95.152Zm-66.65-3.783a4.641,4.641,0,0,1-1.4-3.411V83.143a4.514,4.514,0,0,1,1.438-3.345,4.679,4.679,0,0,1,3.379-1.4,4.677,4.677,0,0,1,3.377,1.4,4.514,4.514,0,0,1,1.438,3.345v4.816a4.645,4.645,0,0,1-1.4,3.411,4.646,4.646,0,0,1-3.411,1.4A4.643,4.643,0,0,1-5306.483,91.37Zm-28.833,0a4.645,4.645,0,0,1-1.4-3.411V83.143a4.514,4.514,0,0,1,1.438-3.345,4.676,4.676,0,0,1,3.378-1.4,4.676,4.676,0,0,1,3.378,1.4,4.512,4.512,0,0,1,1.438,3.345v4.816a4.625,4.625,0,0,1-1.438,3.378,4.624,4.624,0,0,1-3.378,1.438A4.649,4.649,0,0,1-5335.315,91.37Zm109.833-1a4.64,4.64,0,0,1-1.406-3.411V82.142a4.515,4.515,0,0,1,1.439-3.345,4.678,4.678,0,0,1,3.378-1.4,4.676,4.676,0,0,1,3.378,1.4,4.51,4.51,0,0,1,1.439,3.345v4.816a4.643,4.643,0,0,1-1.405,3.411,4.647,4.647,0,0,1-3.412,1.406A4.642,4.642,0,0,1-5225.482,90.37Zm-28.831,0a4.637,4.637,0,0,1-1.405-3.411V82.142a4.509,4.509,0,0,1,1.438-3.345,4.676,4.676,0,0,1,3.378-1.4,4.675,4.675,0,0,1,3.378,1.4,4.515,4.515,0,0,1,1.439,3.345v4.816a4.629,4.629,0,0,1-1.439,3.379,4.624,4.624,0,0,1-3.378,1.438A4.641,4.641,0,0,1-5254.313,90.37Z" transform="translate(6460 1860)" fill="#090539"/>
    <path id="Union_8_-_Outline" data-name="Union 8 - Outline" d="M-5386,195h-307a25.838,25.838,0,0,1-10.121-2.044,25.913,25.913,0,0,1-8.264-5.572,25.909,25.909,0,0,1-5.572-8.264A25.838,25.838,0,0,1-5719,169V30a25.842,25.842,0,0,1,2.043-10.121,25.91,25.91,0,0,1,5.572-8.264,25.914,25.914,0,0,1,8.264-5.572A25.838,25.838,0,0,1-5693,4h307a25.839,25.839,0,0,1,10.121,2.044,25.909,25.909,0,0,1,8.264,5.572,25.92,25.92,0,0,1,5.572,8.264A25.841,25.841,0,0,1-5360,30V56.46a44.741,44.741,0,0,1,4.288-10.012,43.5,43.5,0,0,1,6.95-8.97,46.309,46.309,0,0,1,8.956-6.939,43.424,43.424,0,0,1,10.544-4.486,43.692,43.692,0,0,1,11.74-1.575,44.087,44.087,0,0,1,11.774,1.575,43.287,43.287,0,0,1,10.578,4.487,45.486,45.486,0,0,1,8.926,6.941,45.533,45.533,0,0,1,6.941,8.925,42.057,42.057,0,0,1,2.1,4.01,44.251,44.251,0,0,1,2.491-4.969,43.482,43.482,0,0,1,6.95-8.97,46.446,46.446,0,0,1,8.954-6.938,43.524,43.524,0,0,1,10.545-4.486,43.724,43.724,0,0,1,11.743-1.575,44.08,44.08,0,0,1,11.772,1.575,43.347,43.347,0,0,1,10.579,4.487,45.565,45.565,0,0,1,8.925,6.941,45.513,45.513,0,0,1,6.943,8.926,43.446,43.446,0,0,1,4.485,10.58,44.053,44.053,0,0,1,1.575,11.772c0,1.659.022,3.384.067,5.126.045,1.759.068,3.5.068,5.176,0,2.068-.057,4.09-.17,6.012a54.518,54.518,0,0,1-.646,5.791,42.723,42.723,0,0,1-1.371,5.721,43.361,43.361,0,0,1-1.847,4.827,42.335,42.335,0,0,1,9.057,6.276,42.8,42.8,0,0,1,7.568,9.04,44.09,44.09,0,0,1,4.827,10.747,41.583,41.583,0,0,1,1.712,11.859v36.187h-81v1h-106.851a25.806,25.806,0,0,1-3.136,7.279,26.057,26.057,0,0,1-5.692,6.419,25.9,25.9,0,0,1-7.526,4.246A25.926,25.926,0,0,1-5386,195ZM-5693,6a24.027,24.027,0,0,0-24,24V169a24.027,24.027,0,0,0,24,24h307a23.938,23.938,0,0,0,8.143-1.416,23.91,23.91,0,0,0,6.946-3.919,24.09,24.09,0,0,0,8.324-13.364l.176-.78h106.438v-1h81V138.334a39.569,39.569,0,0,0-1.629-11.288,42.1,42.1,0,0,0-4.607-10.259,40.786,40.786,0,0,0-7.215-8.617,40.415,40.415,0,0,0-9.466-6.4l-.89-.434.425-.894a42.039,42.039,0,0,0,2.156-5.455,40.709,40.709,0,0,0,1.307-5.452,52.406,52.406,0,0,0,.622-5.578c.111-1.884.167-3.868.167-5.9,0-1.659-.022-3.383-.067-5.125-.045-1.759-.068-3.5-.068-5.177a42.058,42.058,0,0,0-1.5-11.237,41.45,41.45,0,0,0-4.277-10.093,43.5,43.5,0,0,0-6.638-8.533,43.573,43.573,0,0,0-8.534-6.637,41.338,41.338,0,0,0-10.091-4.278,42.081,42.081,0,0,0-11.238-1.5,41.727,41.727,0,0,0-11.206,1.5,41.523,41.523,0,0,0-10.06,4.279,44.441,44.441,0,0,0-8.567,6.639,41.483,41.483,0,0,0-6.631,8.557,42.5,42.5,0,0,0-3.244,6.948l-.906,2.507-.966-2.485a40.447,40.447,0,0,0-2.919-6,43.555,43.555,0,0,0-6.637-8.533,43.506,43.506,0,0,0-8.534-6.637,41.3,41.3,0,0,0-10.09-4.279,42.088,42.088,0,0,0-11.24-1.5,41.7,41.7,0,0,0-11.2,1.5,41.434,41.434,0,0,0-10.059,4.279,44.3,44.3,0,0,0-8.569,6.64,41.474,41.474,0,0,0-6.631,8.558,42.82,42.82,0,0,0-4.249,10.1,41.684,41.684,0,0,0-1.5,11.2c0,2.442-.011,4.865-.032,7.2-.022,2.353-.034,4.769-.034,7.182a42.165,42.165,0,0,0,4.183,18.3l.427.9-.892.435a40.594,40.594,0,0,0-4.371,2.475l-1.546,1.008V30a24.028,24.028,0,0,0-24-24Zm333,89.608v7q1.06-.627,2.163-1.2A45.313,45.313,0,0,1-5360,95.607Zm62,70.28h-64V116.325l.29-.292a35.213,35.213,0,0,1,4.954-4.146,31.834,31.834,0,0,1,9.877-4.558l.606-.163.41.475a37.638,37.638,0,0,0,12.741,9.646,36.9,36.9,0,0,0,15.6,3.386,36.832,36.832,0,0,0,15.634-3.385,38.43,38.43,0,0,0,12.781-9.652l.41-.468.6.161c.618.165,1.218.342,1.782.526l1.548.5-1.15,1.152a41.662,41.662,0,0,0-5.815,7.311,41.952,41.952,0,0,0-4.639,10.291A39.336,39.336,0,0,0-5298,138.334Zm-62-2h60V138.334a41.332,41.332,0,0,1,1.712-11.791,43.949,43.949,0,0,1,4.861-10.781q.976-1.56,2.084-3.035a39.825,39.825,0,0,1-9.7,6.375,38.819,38.819,0,0,1-16.476,3.571,38.888,38.888,0,0,1-16.44-3.571,39.55,39.55,0,0,1-12.995-9.676,29.776,29.776,0,0,0-8.662,4.1,33.309,33.309,0,0,0-4.382,3.621Zm177.393,1h-73.367V139.334a39.536,39.536,0,0,0-1.632-11.288,42.092,42.092,0,0,0-4.6-10.26,40.871,40.871,0,0,0-7.217-8.618l-.015-.014-.039-.035-.032-.029-1.208-1.089,1.517-.587a33.057,33.057,0,0,1,3.326-1.086l.606-.163.411.475a37.656,37.656,0,0,0,12.739,9.648,36.939,36.939,0,0,0,15.6,3.385,36.849,36.849,0,0,0,15.633-3.384,38.43,38.43,0,0,0,12.778-9.653l.409-.468.6.159a32.133,32.133,0,0,1,9.942,4.523,33.6,33.6,0,0,1,7.722,7.31,33.536,33.536,0,0,1,5.034,9.411,32.77,32.77,0,0,1,1.794,10.763Zm-71.367-2h69.367V138.334a30.776,30.776,0,0,0-1.684-10.108,31.548,31.548,0,0,0-4.733-8.851,31.6,31.6,0,0,0-7.263-6.874,30.023,30.023,0,0,0-8.734-4.077,40.332,40.332,0,0,1-13.023,9.679,38.834,38.834,0,0,1-16.475,3.57,38.928,38.928,0,0,1-16.443-3.569,39.583,39.583,0,0,1-12.993-9.677q-.508.147-1.009.312a42.7,42.7,0,0,1,6.452,7.99,44.1,44.1,0,0,1,4.824,10.747,41.547,41.547,0,0,1,1.715,11.858Zm-9.633,2h-26.76V138.334a32.484,32.484,0,0,1,1.795-10.732,33.207,33.207,0,0,1,5.071-9.38,34.57,34.57,0,0,1,5.3-5.484l.607-.5.63.472a33.372,33.372,0,0,1,6.525,6.453,33.535,33.535,0,0,1,5.034,9.411,32.77,32.77,0,0,1,1.794,10.763Zm-24.76-2h22.76V139.334a30.776,30.776,0,0,0-1.684-10.108,31.54,31.54,0,0,0-4.733-8.851,31.345,31.345,0,0,0-5.5-5.582,32.529,32.529,0,0,0-4.39,4.652,31.2,31.2,0,0,0-4.765,8.816,30.478,30.478,0,0,0-1.684,10.073Zm-29.154-45.03a34.008,34.008,0,0,1-13.5-2.725,34.693,34.693,0,0,1-11.02-7.438,35.432,35.432,0,0,1-7.4-11.047,34.036,34.036,0,0,1-2.724-13.5v-5.75h4.817V68.759a19.959,19.959,0,0,1,1.586-7.92,20.378,20.378,0,0,1,4.326-6.433,20.466,20.466,0,0,1,6.4-4.325,19.736,19.736,0,0,1,7.889-1.587h1v1a17.826,17.826,0,0,0,1.423,7.064,18.439,18.439,0,0,0,3.9,5.809,18.917,18.917,0,0,0,5.816,3.938,17.464,17.464,0,0,0,7.057,1.454h20.333v9.633h4.75v5.75a33.8,33.8,0,0,1-2.724,13.474,35.243,35.243,0,0,1-7.437,11.015,35.749,35.749,0,0,1-11.01,7.467A33.455,33.455,0,0,1-5317.521,117.857Zm-32.648-38.465v3.75a32.044,32.044,0,0,0,2.562,12.716,33.432,33.432,0,0,0,6.982,10.427,32.708,32.708,0,0,0,10.388,7.009,32.024,32.024,0,0,0,12.716,2.562,31.463,31.463,0,0,0,12.677-2.591,33.753,33.753,0,0,0,10.4-7.049,33.248,33.248,0,0,0,7.015-10.393,31.817,31.817,0,0,0,2.56-12.681v-3.75h-4.75V69.759h-18.333a19.452,19.452,0,0,1-7.859-1.622,20.907,20.907,0,0,1-6.427-4.356,20.424,20.424,0,0,1-4.327-6.435,19.669,19.669,0,0,1-1.56-6.828,17.525,17.525,0,0,0-6.12,1.4,18.479,18.479,0,0,0-5.777,3.9,18.387,18.387,0,0,0-3.9,5.808,17.966,17.966,0,0,0-1.425,7.132V79.393Zm113.65,37.464a34,34,0,0,1-13.506-2.725,34.7,34.7,0,0,1-11.019-7.438,35.367,35.367,0,0,1-7.4-11.046,34.029,34.029,0,0,1-2.723-13.506v-5.75h4.816V67.759a19.958,19.958,0,0,1,1.586-7.92,20.375,20.375,0,0,1,4.325-6.433,20.55,20.55,0,0,1,6.4-4.325,19.76,19.76,0,0,1,7.891-1.588h1v1a17.834,17.834,0,0,0,1.424,7.064,18.364,18.364,0,0,0,3.9,5.808,18.877,18.877,0,0,0,5.813,3.939,17.475,17.475,0,0,0,7.058,1.454h20.333v9.633h4.749v5.75a33.789,33.789,0,0,1-2.723,13.474,35.238,35.238,0,0,1-7.436,11.015,35.76,35.76,0,0,1-11.009,7.467A33.459,33.459,0,0,1-5236.52,116.857Zm-32.648-38.465v3.75a32.038,32.038,0,0,0,2.561,12.717,33.374,33.374,0,0,0,6.981,10.425,32.709,32.709,0,0,0,10.388,7.01,32.019,32.019,0,0,0,12.718,2.562,31.469,31.469,0,0,0,12.677-2.591,33.77,33.77,0,0,0,10.4-7.049,33.259,33.259,0,0,0,7.014-10.393,31.8,31.8,0,0,0,2.559-12.681v-3.75h-4.749V68.759h-18.333a19.459,19.459,0,0,1-7.86-1.622,20.871,20.871,0,0,1-6.425-4.356,20.346,20.346,0,0,1-4.326-6.436,19.688,19.688,0,0,1-1.561-6.827,17.548,17.548,0,0,0-6.122,1.4,18.559,18.559,0,0,0-5.778,3.9,18.392,18.392,0,0,0-3.9,5.806,17.969,17.969,0,0,0-1.425,7.132V78.393Zm-40.994,32.508a2.937,2.937,0,0,1-1.818-.678c-.375-.292-.833-.612-1.364-.952a12.192,12.192,0,0,0-1.79-.924,5.6,5.6,0,0,0-2.186-.389,5.344,5.344,0,0,0-2.14.384,12.862,12.862,0,0,0-1.771.931c-.543.349-1.021.675-1.415.966a3.09,3.09,0,0,1-1.833.664,3.209,3.209,0,0,1-2.313-.963,3.209,3.209,0,0,1-.961-2.313,3.821,3.821,0,0,1,1.443-2.924,11.057,11.057,0,0,1,2.905-1.805,19.1,19.1,0,0,1,3.318-1.095,12.888,12.888,0,0,1,2.766-.393,13.048,13.048,0,0,1,2.833.393,19.078,19.078,0,0,1,3.319,1.1,10.975,10.975,0,0,1,2.9,1.805,3.81,3.81,0,0,1,1.442,2.923,3.148,3.148,0,0,1-1.014,2.332A3.277,3.277,0,0,1-5310.162,110.9Zm-7.158-4.943a7.569,7.569,0,0,1,2.967.547,14.222,14.222,0,0,1,2.086,1.08c.584.374,1.093.73,1.515,1.059a1.013,1.013,0,0,0,.59.257,1.306,1.306,0,0,0,.948-.394,1.135,1.135,0,0,0,.392-.882,1.883,1.883,0,0,0-.762-1.42,8.986,8.986,0,0,0-2.381-1.474,17.058,17.058,0,0,0-2.97-.981,11.326,11.326,0,0,0-2.385-.342,11.206,11.206,0,0,0-2.318.342,17.088,17.088,0,0,0-2.969.98,9.062,9.062,0,0,0-2.382,1.473,1.891,1.891,0,0,0-.763,1.421,1.186,1.186,0,0,0,.375.9,1.2,1.2,0,0,0,.9.377,1.169,1.169,0,0,0,.647-.274c.432-.319.931-.66,1.522-1.04a14.873,14.873,0,0,1,2.048-1.078A7.307,7.307,0,0,1-5317.32,105.957Zm88.158,3.943a2.945,2.945,0,0,1-1.817-.677c-.376-.294-.833-.613-1.363-.95a11.947,11.947,0,0,0-1.791-.927,5.6,5.6,0,0,0-2.186-.389,5.36,5.36,0,0,0-2.142.384,12.825,12.825,0,0,0-1.768.931c-.54.345-1.016.67-1.416.965a3.081,3.081,0,0,1-1.833.664,3.209,3.209,0,0,1-2.313-.963,3.2,3.2,0,0,1-.962-2.311,3.82,3.82,0,0,1,1.445-2.926,11.026,11.026,0,0,1,2.9-1.8,19.086,19.086,0,0,1,3.318-1.095,12.9,12.9,0,0,1,2.768-.393,13.055,13.055,0,0,1,2.833.393,19.1,19.1,0,0,1,3.319,1.1,11.064,11.064,0,0,1,2.9,1.8,3.818,3.818,0,0,1,1.443,2.925,3.146,3.146,0,0,1-1.014,2.33A3.278,3.278,0,0,1-5229.162,109.9Zm-7.158-4.943a7.574,7.574,0,0,1,2.966.547,13.906,13.906,0,0,1,2.088,1.084c.581.37,1.091.726,1.514,1.057a1.017,1.017,0,0,0,.589.256,1.306,1.306,0,0,0,.949-.394,1.133,1.133,0,0,0,.392-.881,1.89,1.89,0,0,0-.763-1.422,9.069,9.069,0,0,0-2.381-1.473,17.091,17.091,0,0,0-2.97-.98,11.34,11.34,0,0,0-2.384-.342,11.217,11.217,0,0,0-2.319.342,17.073,17.073,0,0,0-2.969.98,9.037,9.037,0,0,0-2.378,1.472,1.893,1.893,0,0,0-.766,1.424,1.18,1.18,0,0,0,.375.9,1.187,1.187,0,0,0,.9.378,1.224,1.224,0,0,0,.646-.273c.434-.321.947-.671,1.524-1.04a14.826,14.826,0,0,1,2.043-1.078A7.325,7.325,0,0,1-5236.32,104.957Zm-41.566-1.686-.478-.238c-.176-.088-.353-.175-.529-.262l-.89-.435.426-.894c.606-1.274,1.15-2.57,1.616-3.853l.9-2.483.969,2.458c.38.964.8,1.933,1.252,2.878l.427.894-.89.435c-.8.389-1.584.805-2.34,1.236Zm-39.568-4.681a5.61,5.61,0,0,1-4.085-1.731,5.612,5.612,0,0,1-1.731-4.085v-1h11.633v1a5.634,5.634,0,0,1-1.7,4.12A5.631,5.631,0,0,1-5317.454,98.591Zm-3.684-4.816a3.779,3.779,0,0,0,1.013,1.671,3.63,3.63,0,0,0,2.671,1.145,3.649,3.649,0,0,0,2.7-1.111,3.647,3.647,0,0,0,.994-1.705Zm84.683,3.816a5.618,5.618,0,0,1-4.085-1.73,5.615,5.615,0,0,1-1.729-4.084v-1h11.632v1a5.63,5.63,0,0,1-1.7,4.118A5.632,5.632,0,0,1-5236.455,97.59Zm-3.683-4.815a3.785,3.785,0,0,0,1.012,1.67,3.636,3.636,0,0,0,2.671,1.144,3.651,3.651,0,0,0,2.705-1.111,3.643,3.643,0,0,0,.993-1.7Zm-62.933,1a5.63,5.63,0,0,1-4.12-1.7,5.632,5.632,0,0,1-1.7-4.118V83.143a5.5,5.5,0,0,1,1.739-4.061,5.671,5.671,0,0,1,4.078-1.689,5.663,5.663,0,0,1,4.076,1.69,5.5,5.5,0,0,1,1.739,4.06v4.816a5.635,5.635,0,0,1-1.7,4.118A5.631,5.631,0,0,1-5303.07,93.775Zm0-14.382a3.684,3.684,0,0,0-2.681,1.121,3.521,3.521,0,0,0-1.137,2.629v4.816a3.65,3.65,0,0,0,1.112,2.7,3.648,3.648,0,0,0,2.706,1.112,3.65,3.65,0,0,0,2.7-1.112,3.653,3.653,0,0,0,1.11-2.7V83.143a3.522,3.522,0,0,0-1.136-2.629A3.681,3.681,0,0,0-5303.07,79.393ZM-5331.9,93.775a5.638,5.638,0,0,1-4.119-1.7,5.636,5.636,0,0,1-1.7-4.119V83.143a5.5,5.5,0,0,1,1.739-4.061,5.663,5.663,0,0,1,4.077-1.689,5.664,5.664,0,0,1,4.077,1.69,5.5,5.5,0,0,1,1.739,4.06v4.816a5.614,5.614,0,0,1-1.73,4.085A5.61,5.61,0,0,1-5331.9,93.775Zm0-14.382a3.678,3.678,0,0,0-2.679,1.12,3.521,3.521,0,0,0-1.137,2.63v4.816a3.653,3.653,0,0,0,1.111,2.7,3.655,3.655,0,0,0,2.705,1.111,3.63,3.63,0,0,0,2.671-1.145,3.633,3.633,0,0,0,1.145-2.671V83.143a3.52,3.52,0,0,0-1.136-2.629A3.68,3.68,0,0,0-5331.9,79.393Zm109.832,13.383a5.627,5.627,0,0,1-4.119-1.7,5.626,5.626,0,0,1-1.7-4.118V82.142a5.5,5.5,0,0,1,1.74-4.061,5.667,5.667,0,0,1,4.077-1.689,5.664,5.664,0,0,1,4.077,1.69,5.5,5.5,0,0,1,1.74,4.06v4.816a5.63,5.63,0,0,1-1.7,4.118A5.634,5.634,0,0,1-5222.071,92.776Zm0-14.383a3.682,3.682,0,0,0-2.68,1.12,3.523,3.523,0,0,0-1.138,2.63v4.816a3.647,3.647,0,0,0,1.113,2.7,3.646,3.646,0,0,0,2.7,1.114,3.651,3.651,0,0,0,2.705-1.113,3.649,3.649,0,0,0,1.112-2.7V82.142a3.518,3.518,0,0,0-1.138-2.629A3.679,3.679,0,0,0-5222.071,78.393ZM-5250.9,92.776a5.626,5.626,0,0,1-4.118-1.7,5.625,5.625,0,0,1-1.7-4.118V82.142a5.5,5.5,0,0,1,1.74-4.061,5.664,5.664,0,0,1,4.076-1.689,5.665,5.665,0,0,1,4.077,1.69,5.5,5.5,0,0,1,1.74,4.06v4.816a5.618,5.618,0,0,1-1.731,4.086A5.613,5.613,0,0,1-5250.9,92.776Zm0-14.383a3.679,3.679,0,0,0-2.679,1.12,3.518,3.518,0,0,0-1.137,2.63v4.816a3.644,3.644,0,0,0,1.112,2.7,3.645,3.645,0,0,0,2.7,1.114,3.631,3.631,0,0,0,2.671-1.145,3.636,3.636,0,0,0,1.146-2.672V82.142a3.522,3.522,0,0,0-1.138-2.629A3.681,3.681,0,0,0-5250.9,78.393Z" transform="translate(6460 1860)" fill="#50d8d7"/>
    <text id="DUO_BOOST" data-name="DUO BOOST" transform="translate(775 1927)" fill="#50d8d7" font-size="49" font-family="NirmalaUI-Bold, Nirmala UI" font-weight="700"><tspan x="0" y="53">DUO BOOST</tspan></text>
  </g>
</svg>
