<svg xmlns="http://www.w3.org/2000/svg" width="217.418" height="206.122" viewBox="0 0 487.418 206.122">
  <g id="Group_13" data-name="Group 13" transform="translate(-133 -1559.853)">
    <path id="Union_3" data-name="Union 3" d="M-5295.117,368.69a71.329,71.329,0,0,1-7.337-9.148,46.713,46.713,0,0,1-5.06-9.922q-.424-1.155-.771-2.369a25.007,25.007,0,0,1-24.714,21.2h-360a25,25,0,0,1-25-25v-139a25,25,0,0,1,25-25h360a25.005,25.005,0,0,1,24.858,22.314q1.75-3.109,3.743-6.1a95.569,95.569,0,0,1,11.977-14.584l6.364-6.364,6.365,6.364a95.569,95.569,0,0,1,11.977,14.584,94.508,94.508,0,0,1,8.772,16.463,97.185,97.185,0,0,1,5.414,17.876,95.106,95.106,0,0,1,1.855,18.782v23.866l19.047,19.047.044,31.776h-22.539l-7.2,14.451a40.154,40.154,0,0,1-1.679,9.811,44.8,44.8,0,0,1-3.712,8.706,55.206,55.206,0,0,1-5.349,7.867,95.34,95.34,0,0,1-6.628,7.336l-6.365,6.364Q-5290.918,373.155-5295.117,368.69Zm-5.149-26.053a35.738,35.738,0,0,0,3.138,8.353,45.327,45.327,0,0,0,5.016,7.578,88.9,88.9,0,0,0,6.054,6.719,89.01,89.01,0,0,0,6.055-6.719,45.393,45.393,0,0,0,5.017-7.578,35.736,35.736,0,0,0,3.137-8.353,25.579,25.579,0,0,0,.465-9.082h-6.719a23.621,23.621,0,0,1-.508,5.414,24.221,24.221,0,0,1-1.613,4.883,28.661,28.661,0,0,1-2.542,4.486q-1.479,2.144-3.292,4.309-1.812-2.165-3.292-4.309a28.737,28.737,0,0,1-2.541-4.486,24.315,24.315,0,0,1-1.613-4.883,23.649,23.649,0,0,1-.508-5.414h-6.719A25.6,25.6,0,0,0-5300.266,342.638Zm44.128-28.129,14.539-.044v-19l-14.583-14.584Zm-4.509,0v-65.76a86.144,86.144,0,0,0-.928-12.64,90.693,90.693,0,0,0-2.74-12.419H-5307.8q-.1.34-.2.681v90.138Zm-5.215-95.283a86.82,86.82,0,0,0-8.352-17.014,86.175,86.175,0,0,0-11.845-14.761,87.86,87.86,0,0,0-11.888,14.761,81.955,81.955,0,0,0-8.309,17.014q10.1-.022,20.2-.022T-5265.861,219.225Zm-21.788,93.736a2.221,2.221,0,0,1-.662-1.635l.043-31.776A2.12,2.12,0,0,1-5287.6,278a2.1,2.1,0,0,1,1.547-.618,2.1,2.1,0,0,1,1.547.618,2.118,2.118,0,0,1,.663,1.547l.044,31.776a2.222,2.222,0,0,1-.663,1.635,2.153,2.153,0,0,1-1.592.618A2.152,2.152,0,0,1-5287.649,312.961Zm-3.468-49.519a13.057,13.057,0,0,1-4.441-2.939,13.057,13.057,0,0,1-2.939-4.443,13.969,13.969,0,0,1-1.018-5.081,13.327,13.327,0,0,1,.973-5.083,13.057,13.057,0,0,1,2.938-4.441,12.988,12.988,0,0,1,4.463-2.96,13.78,13.78,0,0,1,5.083-.973,13.778,13.778,0,0,1,5.083.973,12.982,12.982,0,0,1,4.463,2.96,13.059,13.059,0,0,1,2.939,4.441,13.327,13.327,0,0,1,.973,5.083,13.949,13.949,0,0,1-1.018,5.081,13.064,13.064,0,0,1-2.939,4.443,13.067,13.067,0,0,1-4.441,2.939,13.6,13.6,0,0,1-5.06.993A13.6,13.6,0,0,1-5291.118,263.443Zm1.679-20.772a8.565,8.565,0,0,0-2.983,1.967,8.523,8.523,0,0,0-1.966,2.982,9.3,9.3,0,0,0-.642,3.381,8.868,8.868,0,0,0,.663,3.359,8.9,8.9,0,0,0,1.989,2.96,8.9,8.9,0,0,0,2.962,1.989,8.854,8.854,0,0,0,3.358.663,8.865,8.865,0,0,0,3.359-.663,8.894,8.894,0,0,0,2.96-1.989,8.892,8.892,0,0,0,1.989-2.96,8.868,8.868,0,0,0,.663-3.359,9.3,9.3,0,0,0-.642-3.381,8.523,8.523,0,0,0-1.966-2.982,8.567,8.567,0,0,0-2.984-1.967,9.292,9.292,0,0,0-3.381-.64A9.292,9.292,0,0,0-5289.439,242.671Z" transform="translate(5852 1386.546)" fill="#090539"/>
    <path id="Union_3_-_Outline" data-name="Union 3 - Outline" d="M-5286.058,379.43l-.707-.707c-3.246-3.246-6.3-6.391-9.081-9.347a72.641,72.641,0,0,1-7.439-9.277,47.975,47.975,0,0,1-4.8-9.176,26.041,26.041,0,0,1-7.891,12.188,25.908,25.908,0,0,1-7.779,4.654,25.9,25.9,0,0,1-9.24,1.69h-360a25.841,25.841,0,0,1-10.121-2.043,25.912,25.912,0,0,1-8.264-5.571,25.907,25.907,0,0,1-5.572-8.264A25.84,25.84,0,0,1-5719,343.454v-139a25.838,25.838,0,0,1,2.043-10.12,25.909,25.909,0,0,1,5.572-8.264,25.912,25.912,0,0,1,8.264-5.572A25.837,25.837,0,0,1-5693,178.455h360a25.943,25.943,0,0,1,17.435,6.712,25.959,25.959,0,0,1,7.962,13.693c.762-1.264,1.555-2.516,2.373-3.743a97,97,0,0,1,12.1-14.737l7.071-7.071,7.072,7.071a97.01,97.01,0,0,1,12.1,14.737,95.966,95.966,0,0,1,8.865,16.637,98.648,98.648,0,0,1,5.47,18.06,96.553,96.553,0,0,1,1.875,18.979v23.452l19.047,19.047v.413l.046,32.777H-5254.5l-6.835,13.711a41.257,41.257,0,0,1-1.711,9.845,45.989,45.989,0,0,1-3.795,8.9,56.493,56.493,0,0,1-5.445,8.009,96.734,96.734,0,0,1-6.7,7.412Zm-21.267-32.454c.225.787.478,1.561.749,2.3a45.9,45.9,0,0,0,4.952,9.71,70.638,70.638,0,0,0,7.235,9.02c2.563,2.726,5.363,5.614,8.332,8.6l5.657-5.657a94.776,94.776,0,0,0,6.559-7.259,54.5,54.5,0,0,0,5.252-7.725,43.986,43.986,0,0,0,3.63-8.512,39.351,39.351,0,0,0,1.636-9.568l.01-.209.093-.187,7.48-15h22.156l-.042-30.361-19.048-19.048v-24.28a94.537,94.537,0,0,0-1.836-18.585,96.6,96.6,0,0,0-5.358-17.693,93.962,93.962,0,0,0-8.68-16.289,95,95,0,0,0-11.852-14.432l-5.658-5.657-5.657,5.657a95,95,0,0,0-11.852,14.432c-1.309,1.964-2.555,3.994-3.7,6.034l-1.534,2.723-.332-3.108A23.942,23.942,0,0,0-5333,180.455h-360a24.027,24.027,0,0,0-24,24v139a24.027,24.027,0,0,0,24,24h360a24.144,24.144,0,0,0,23.726-20.353Zm21.267,19.727-.707-.707a90.359,90.359,0,0,1-6.123-6.794,46.533,46.533,0,0,1-5.125-7.745,36.9,36.9,0,0,1-3.226-8.586,26.71,26.71,0,0,1-.485-9.435l.106-.88H-5293l-.016,1.016a22.771,22.771,0,0,0,.485,5.186,23.464,23.464,0,0,0,1.547,4.683,27.9,27.9,0,0,0,2.453,4.33c.755,1.093,1.583,2.2,2.469,3.3.891-1.106,1.718-2.213,2.469-3.3a27.784,27.784,0,0,0,2.454-4.33,23.332,23.332,0,0,0,1.546-4.683,22.726,22.726,0,0,0,.486-5.187l-.016-1.016h8.621l.106.88a26.692,26.692,0,0,1-.485,9.435,36.9,36.9,0,0,1-3.225,8.586,46.627,46.627,0,0,1-5.126,7.745,90.459,90.459,0,0,1-6.123,6.794Zm-13.772-32.147a24.485,24.485,0,0,0,.537,7.85,34.919,34.919,0,0,0,3.051,8.12,44.537,44.537,0,0,0,4.906,7.412c1.7,2.083,3.47,4.074,5.279,5.927,1.808-1.853,3.581-3.843,5.279-5.928a44.613,44.613,0,0,0,4.907-7.412,34.9,34.9,0,0,0,3.05-8.12,24.464,24.464,0,0,0,.537-7.851h-4.821a24.113,24.113,0,0,1-.529,4.627,25.3,25.3,0,0,1-1.679,5.083,29.787,29.787,0,0,1-2.629,4.642c-1,1.445-2.123,2.92-3.348,4.383l-.767.916-.767-.916c-1.218-1.455-2.345-2.93-3.348-4.383a29.874,29.874,0,0,1-2.629-4.642,25.454,25.454,0,0,1-1.679-5.083,24.152,24.152,0,0,1-.528-4.627Zm42.694-19.044v-1l-.048-36.05,16.586,16.588v20.414Zm1.958-32.217.04,30.211,12.54-.038V295.875Zm-4.468,32.214H-5309V224.23l.039-.135c.069-.242.135-.468.2-.691l.212-.715h44.98l.211.717a92.083,92.083,0,0,1,2.77,12.555,87.547,87.547,0,0,1,.939,12.786Zm-23.962-2h21.962v-64.76a85.524,85.524,0,0,0-.917-12.493,90.05,90.05,0,0,0-2.5-11.565H-5307v88.819h18.493a3.244,3.244,0,0,1-.8-2.181l.043-31.777a3.136,3.136,0,0,1,.956-2.253,3.116,3.116,0,0,1,2.254-.911,3.115,3.115,0,0,1,2.254.912,3.135,3.135,0,0,1,.956,2.254l.044,31.774A3.246,3.246,0,0,1-5283.609,313.508Zm-2.449-35.123a1.113,1.113,0,0,0-.84.326,1.12,1.12,0,0,0-.37.84l-.043,31.777a1.231,1.231,0,0,0,.369.926,1.148,1.148,0,0,0,.884.325,1.148,1.148,0,0,0,.885-.326,1.232,1.232,0,0,0,.37-.927l-.044-31.774a1.12,1.12,0,0,0-.37-.841A1.113,1.113,0,0,0-5286.058,278.385Zm0-12.95a14.652,14.652,0,0,1-5.429-1.064,14.107,14.107,0,0,1-4.779-3.161,14.107,14.107,0,0,1-3.161-4.78,15.028,15.028,0,0,1-1.088-5.442,14.392,14.392,0,0,1,1.044-5.462,14.116,14.116,0,0,1,3.161-4.778,14.038,14.038,0,0,1,4.805-3.184,14.836,14.836,0,0,1,5.448-1.042,14.842,14.842,0,0,1,5.449,1.042,14.028,14.028,0,0,1,4.8,3.184,14.122,14.122,0,0,1,3.161,4.778,14.381,14.381,0,0,1,1.044,5.461,15.012,15.012,0,0,1-1.088,5.443,14.122,14.122,0,0,1-3.161,4.78,14.117,14.117,0,0,1-4.778,3.161A14.657,14.657,0,0,1-5286.058,265.436Zm0-26.914a12.846,12.846,0,0,0-4.717.9,12.053,12.053,0,0,0-4.122,2.737,12.123,12.123,0,0,0-2.716,4.1,12.388,12.388,0,0,0-.9,4.7,13.032,13.032,0,0,0,.947,4.72,12.125,12.125,0,0,0,2.717,4.106,12.124,12.124,0,0,0,4.1,2.717,12.662,12.662,0,0,0,4.689.922,12.662,12.662,0,0,0,4.69-.922,12.132,12.132,0,0,0,4.1-2.717,12.126,12.126,0,0,0,2.717-4.106,13.019,13.019,0,0,0,.947-4.72,12.386,12.386,0,0,0-.9-4.7,12.127,12.127,0,0,0-2.717-4.1,12.046,12.046,0,0,0-4.121-2.737A12.851,12.851,0,0,0-5286.058,238.522Zm0,22.451a9.892,9.892,0,0,1-3.734-.736,9.934,9.934,0,0,1-3.293-2.208,9.931,9.931,0,0,1-2.208-3.292,9.9,9.9,0,0,1-.736-3.735,10.338,10.338,0,0,1,.709-3.742,9.556,9.556,0,0,1,2.192-3.329,9.6,9.6,0,0,1,3.329-2.192,10.333,10.333,0,0,1,3.742-.707,10.333,10.333,0,0,1,3.742.707,9.6,9.6,0,0,1,3.33,2.193,9.557,9.557,0,0,1,2.192,3.329,10.338,10.338,0,0,1,.708,3.741,9.9,9.9,0,0,1-.736,3.735,9.922,9.922,0,0,1-2.209,3.292,9.924,9.924,0,0,1-3.292,2.208A9.9,9.9,0,0,1-5286.058,260.973Zm0-17.942a8.342,8.342,0,0,0-3.02.573,7.608,7.608,0,0,0-2.637,1.742,7.567,7.567,0,0,0-1.74,2.635,8.343,8.343,0,0,0-.575,3.021,7.912,7.912,0,0,0,.59,2.984,7.946,7.946,0,0,0,1.769,2.629,7.945,7.945,0,0,0,2.63,1.769,7.9,7.9,0,0,0,2.982.59,7.912,7.912,0,0,0,2.984-.59,7.939,7.939,0,0,0,2.629-1.769,7.941,7.941,0,0,0,1.77-2.629,7.908,7.908,0,0,0,.59-2.984,8.343,8.343,0,0,0-.574-3.02,7.57,7.57,0,0,0-1.74-2.635,7.615,7.615,0,0,0-2.638-1.742A8.342,8.342,0,0,0-5286.058,243.031Zm21.625-22.8-1.43,0c-6.7-.014-13.5-.022-20.195-.022s-13.494.007-20.194.022l-1.417,0,.472-1.336a83.329,83.329,0,0,1,8.41-17.221,89.243,89.243,0,0,1,12.022-14.928l.707-.707.707.707a87.591,87.591,0,0,1,11.982,14.932,88.223,88.223,0,0,1,8.448,17.209Zm-21.625-31.355a87.238,87.238,0,0,0-11.046,13.878,81.322,81.322,0,0,0-7.723,15.471c6.237-.012,12.544-.019,18.769-.019s12.523.006,18.757.019a86.131,86.131,0,0,0-7.756-15.474A85.537,85.537,0,0,0-5286.058,188.873Z" transform="translate(5852 1386.546)" fill="#50d8d7"/>
    <text id="WR_BOOSTING" data-name="WR BOOSTING" transform="translate(162 1628)" fill="#50d8d7" font-size="49" font-family="NirmalaUI-Bold, Nirmala UI" font-weight="700"><tspan x="0" y="53">WR BOOSTING</tspan></text>
  </g>
</svg>
