<svg xmlns="http://www.w3.org/2000/svg" width="215.509" height="191" viewBox="0 0 489.509 191">
  <g id="Group_15" data-name="Group 15" transform="translate(-1349 -1565)">
    <path id="Union_5" data-name="Union 5" d="M-5693,194a25,25,0,0,1-25-25V30a25,25,0,0,1,25-25h338a25,25,0,0,1,25,25V42.909a38.866,38.866,0,0,1,7.169-2.777,38.166,38.166,0,0,1,10.3-1.382h82.039v86.364h-12.973V141.03a11.578,11.578,0,0,1,2.523,3.092,13.652,13.652,0,0,1,1.321,3.454,20.6,20.6,0,0,1,.511,3.694q.088,1.892.089,3.873v1.682a33.618,33.618,0,0,1-.24,4.114,16.324,16.324,0,0,1-.9,3.724,11.445,11.445,0,0,1-1.891,3.273,11.541,11.541,0,0,1-3.213,2.642,10.62,10.62,0,0,1-3,3.543,12.977,12.977,0,0,1-3.754,1.893,17.279,17.279,0,0,1-4.264.751q-2.251.121-4.595.121h-70.389A25.012,25.012,0,0,1-5355,194Zm431.73-55.853a4.985,4.985,0,0,0-.99.481,12.527,12.527,0,0,0-1.352,1.2q-.99.96-2.282,2.312t-2.762,2.973q-1.472,1.621-2.824,3.092t-2.432,2.673q-1.081,1.2-1.562,1.741a9.026,9.026,0,0,0-2.521,6.367,8.74,8.74,0,0,0,.75,3.6,9.719,9.719,0,0,0,2.012,2.943,9.32,9.32,0,0,0,2.942,1.982,9.079,9.079,0,0,0,3.6.72h12.311a4.12,4.12,0,0,0,3.124-1.261,4.43,4.43,0,0,0,1.2-3.183,4.125,4.125,0,0,0,3.093-1.2,4.288,4.288,0,0,0,1.171-3.124V150.82a4.375,4.375,0,0,0-.511-2.283,3.491,3.491,0,0,0-1.351-1.29,5.683,5.683,0,0,0-1.923-.6,15.631,15.631,0,0,0-2.161-.151q-.661,0-1.322.03t-1.322.03q0-.719.03-1.441t.03-1.382a18.264,18.264,0,0,0-.121-2.072,5.733,5.733,0,0,0-.511-1.861,3.231,3.231,0,0,0-1.17-1.322,3.679,3.679,0,0,0-2.042-.509A3.314,3.314,0,0,0-5261.271,138.147Zm-25.314-4.444-8.649,8.649,8.649,8.647-17.3,17.238h25.225a14.393,14.393,0,0,1-2.7-4.3,13.064,13.064,0,0,1-.961-4.954,12.706,12.706,0,0,1,.961-4.985,16.548,16.548,0,0,1,2.7-4.324q2.342-2.7,4.774-5.255t4.9-5.076a26.726,26.726,0,0,0-11.11-10.78,33.117,33.117,0,0,0-15.135-3.454Zm-32.372,34.534h12.913l9.369-37.417-7.208,7.207-8.647-8.647,4.324-4.265h-8.649l4.325,4.265-8.589,8.647-7.207-7.207Zm-2.163,0-8.881-8.851v8.851ZM-5330,142.584l.232-.232-.232-.233Zm73.624-8.04a7.73,7.73,0,0,1,4.265,7.146l.06-42.521h-4.325Zm-73.624-9.2.232-.231H-5330Zm5.308-7.047a29.994,29.994,0,0,0,12.162,2.432,29.31,29.31,0,0,0,11.741-2.372,30.851,30.851,0,0,0,9.609-6.456,30.229,30.229,0,0,0,6.486-9.58,29.3,29.3,0,0,0,2.372-11.741V86.257h-4.263V77.608h-17.357a16.5,16.5,0,0,1-6.7-1.381,17.783,17.783,0,0,1-5.495-3.724,17.347,17.347,0,0,1-3.694-5.495,16.826,16.826,0,0,1-1.352-6.7,16.747,16.747,0,0,0-6.726,1.352,18.235,18.235,0,0,0-2.1,1.07v52.582A30,30,0,0,0-5324.692,118.3Zm34.474-67.115a36.8,36.8,0,0,1,4.654,4.865h37.777v60.419h8.649V47.4h-56.636A28.291,28.291,0,0,1-5290.218,51.183Zm.57,65.284h28.949v-8.649h-21.921A35.619,35.619,0,0,1-5289.648,116.467Zm-25.224-4.655a15.4,15.4,0,0,1-2.854-.961,9.487,9.487,0,0,1-2.431-1.531,2.619,2.619,0,0,1-1.021-1.982,1.914,1.914,0,0,1,.631-1.441,2.062,2.062,0,0,1,1.471-.6,1.885,1.885,0,0,1,1.111.42q.571.42,1.322.9a11.819,11.819,0,0,0,1.742.9,6.059,6.059,0,0,0,2.372.42,6.115,6.115,0,0,0,2.342-.42,12.753,12.753,0,0,0,1.8-.9q.779-.48,1.351-.9a1.885,1.885,0,0,1,1.111-.42,1.967,1.967,0,0,1,1.442.6,1.963,1.963,0,0,1,.6,1.441,2.588,2.588,0,0,1-1.021,2.012,10.167,10.167,0,0,1-2.4,1.5,14.442,14.442,0,0,1-2.853.961,11.441,11.441,0,0,1-2.372.33A11.011,11.011,0,0,1-5314.872,111.812Zm-.722-13.9a4.169,4.169,0,0,1-1.261-3.062h8.588a4.2,4.2,0,0,1-1.261,3.032,4.052,4.052,0,0,1-3,1.292A4.172,4.172,0,0,1-5315.594,97.908Zm13-4.324a4.057,4.057,0,0,1-1.292-3V86.257a4.169,4.169,0,0,1,1.261-3.062,4.172,4.172,0,0,1,3.064-1.261,4.168,4.168,0,0,1,3.062,1.261,4.168,4.168,0,0,1,1.262,3.062V90.58a4.054,4.054,0,0,1-1.292,3,4.2,4.2,0,0,1-3.032,1.261A4.2,4.2,0,0,1-5302.591,93.584Zm-25.885,0a4.054,4.054,0,0,1-1.292-3V86.257a4.169,4.169,0,0,1,1.261-3.062,4.173,4.173,0,0,1,3.064-1.261,4.15,4.15,0,0,1,3.032,1.292,4.148,4.148,0,0,1,1.292,3.032V90.58a4.054,4.054,0,0,1-1.292,3,4.2,4.2,0,0,1-3.032,1.261A4.2,4.2,0,0,1-5328.476,93.584Z" transform="translate(7068 1561)" fill="#090539"/>
    <path id="Union_5_-_Outline" data-name="Union 5 - Outline" d="M-5355,195h-338a25.837,25.837,0,0,1-10.121-2.044,25.912,25.912,0,0,1-8.264-5.572,25.909,25.909,0,0,1-5.572-8.264A25.838,25.838,0,0,1-5719,169V30a25.842,25.842,0,0,1,2.043-10.121,25.91,25.91,0,0,1,5.572-8.264,25.907,25.907,0,0,1,8.264-5.572A25.838,25.838,0,0,1-5693,4h338a25.836,25.836,0,0,1,10.12,2.044,25.915,25.915,0,0,1,8.264,5.572,25.918,25.918,0,0,1,5.572,8.264A25.842,25.842,0,0,1-5329,30V41.318a40.373,40.373,0,0,1,5.9-2.149,39.341,39.341,0,0,1,10.569-1.419h83.039v88.364h-12.973V140.59a12.367,12.367,0,0,1,2.4,3.054,14.723,14.723,0,0,1,1.417,3.706,21.73,21.73,0,0,1,.536,3.873c.06,1.286.09,2.6.09,3.921v1.682a34.673,34.673,0,0,1-.248,4.237,17.38,17.38,0,0,1-.957,3.951,12.5,12.5,0,0,1-2.055,3.557,12.421,12.421,0,0,1-3.248,2.734,11.489,11.489,0,0,1-3.156,3.627,14.03,14.03,0,0,1-4.042,2.037,18.353,18.353,0,0,1-4.509.795c-1.512.081-3.076.122-4.648.122h-69.678a25.913,25.913,0,0,1-3.451,6.459,26.1,26.1,0,0,1-5.628,5.632A25.8,25.8,0,0,1-5355,195ZM-5693,6a24.027,24.027,0,0,0-24,24V169a24.027,24.027,0,0,0,24,24h338a23.966,23.966,0,0,0,22.781-16.429l.228-.685h71.11c1.537,0,3.064-.04,4.542-.119a16.357,16.357,0,0,0,4.018-.706,12.036,12.036,0,0,0,3.466-1.748,9.681,9.681,0,0,0,2.716-3.217l.135-.244.241-.139a10.607,10.607,0,0,0,2.939-2.41,10.5,10.5,0,0,0,1.727-2.988,15.391,15.391,0,0,0,.846-3.5,32.722,32.722,0,0,0,.232-3.992v-1.682c0-1.286-.03-2.573-.088-3.827a19.677,19.677,0,0,0-.486-3.513,12.722,12.722,0,0,0-1.225-3.2,10.643,10.643,0,0,0-2.309-2.824l-.336-.3V124.114h12.973V39.75h-81.039a37.342,37.342,0,0,0-10.032,1.345,38.05,38.05,0,0,0-6.985,2.705l-1.453.737V30a24.027,24.027,0,0,0-24-24Zm436.625,163.237h-12.311a10.114,10.114,0,0,1-4-.8,10.361,10.361,0,0,1-3.256-2.194,10.766,10.766,0,0,1-2.219-3.244,9.772,9.772,0,0,1-.837-4.01,10.035,10.035,0,0,1,2.782-7.041c.375-.42.928-1.036,1.558-1.736.731-.812,1.552-1.713,2.438-2.68.835-.908,1.757-1.918,2.821-3.089.977-1.077,1.912-2.084,2.779-2.992.85-.891,1.626-1.678,2.309-2.339a11.517,11.517,0,0,1,1.5-1.318l.019-.012a6.017,6.017,0,0,1,1.189-.577,4.326,4.326,0,0,1,1.445-.237,4.662,4.662,0,0,1,2.589.672,4.232,4.232,0,0,1,1.524,1.726,6.753,6.753,0,0,1,.6,2.182,19.389,19.389,0,0,1,.127,2.184c0,.448-.01.927-.031,1.424q-.008.19-.014.381l.261-.011c.452-.021.913-.031,1.367-.031a16.69,16.69,0,0,1,2.3.16,6.707,6.707,0,0,1,2.258.711,4.494,4.494,0,0,1,1.732,1.652,5.287,5.287,0,0,1,.656,2.8v8.647a5.271,5.271,0,0,1-1.455,3.822,4.895,4.895,0,0,1-2.874,1.438,5.251,5.251,0,0,1-1.412,2.938A5.1,5.1,0,0,1-5256.376,169.237Zm-5.342-29.769a11.756,11.756,0,0,0-1.2,1.079c-.664.643-1.422,1.412-2.254,2.284-.856.9-1.779,1.89-2.745,2.955-1.067,1.174-1.992,2.188-2.829,3.1-.882.962-1.7,1.859-2.426,2.666-.631.7-1.185,1.318-1.558,1.737l-.015.016a7.992,7.992,0,0,0-2.252,5.685,7.781,7.781,0,0,0,.664,3.2,8.765,8.765,0,0,0,1.806,2.644,8.373,8.373,0,0,0,2.629,1.77,8.127,8.127,0,0,0,3.21.639h12.311a3.136,3.136,0,0,0,2.4-.951,3.439,3.439,0,0,0,.925-2.493v-1h1a3.141,3.141,0,0,0,2.377-.9,3.3,3.3,0,0,0,.887-2.426V150.82a3.455,3.455,0,0,0-.365-1.763,2.483,2.483,0,0,0-.969-.928,4.722,4.722,0,0,0-1.588-.492,14.7,14.7,0,0,0-2.023-.141c-.424,0-.854.01-1.276.029-.454.021-.914.031-1.367.031h-1v-1c0-.488.01-.987.031-1.482.02-.469.029-.92.029-1.34a17.36,17.36,0,0,0-.114-1.959,4.775,4.775,0,0,0-.417-1.54,2.229,2.229,0,0,0-.817-.92,2.736,2.736,0,0,0-1.494-.346,2.308,2.308,0,0,0-.779.122A4.013,4.013,0,0,0-5261.718,139.468Zm-14.685,29.769H-5331v-12.26l10.918,10.881-10.091-40.3,9.052,9.052,7.174-7.223-5.347-5.272h13.525l-5.343,5.27,7.229,7.228,9.056-9.054-10.091,40.3L-5288,151l-8.647-8.646,8.646-8.647-9.659-9.591h2.426a34.258,34.258,0,0,1,15.586,3.561,27.829,27.829,0,0,1,11.523,11.17l.383.657-.531.544c-1.573,1.611-3.217,3.316-4.887,5.067-1.61,1.69-3.205,3.445-4.74,5.217a15.608,15.608,0,0,0-2.539,4.059,11.766,11.766,0,0,0-.883,4.6,12.127,12.127,0,0,0,.888,4.578,13.467,13.467,0,0,0,2.517,4Zm-25.059-2h20.743a15.347,15.347,0,0,1-1.568-2.92,14.121,14.121,0,0,1-1.034-5.329,13.76,13.76,0,0,1,1.04-5.374,17.607,17.607,0,0,1,2.863-4.584l0-.006c1.557-1.8,3.173-3.576,4.806-5.29,1.487-1.559,2.953-3.081,4.366-4.533a25.633,25.633,0,0,0-10.307-9.74,31.609,31.609,0,0,0-12.173-3.262l7.554,7.5-8.651,8.651,8.65,8.649Zm-16.714,0h11.352l8.3-33.156-5.36,5.36-8.645-8.645-8.589,8.647-5.361-5.361Zm-10.824,0h5.461l-5.461-5.443Zm14.583-41.123,1.887,1.86,1.886-1.86ZM-5331,145V139.7l2.646,2.647Zm79.889-3.307h-2a6.74,6.74,0,0,0-3.756-6.275l-.509-.287V98.169h6.327Zm-4.265-7.716a9.766,9.766,0,0,1,2.273,1.94l.05-35.747h-2.324ZM-5331,127.748v-3.634h3.658Zm18.47-6.018a31.125,31.125,0,0,1-12.563-2.516,31.155,31.155,0,0,1-5.485-3.083l-.422-.3V62.165l.488-.291a19.3,19.3,0,0,1,2.21-1.129,17.817,17.817,0,0,1,7.123-1.434h1v1a15.906,15.906,0,0,0,1.271,6.3,16.421,16.421,0,0,0,3.481,5.181,16.87,16.87,0,0,0,5.189,3.515,15.587,15.587,0,0,0,6.3,1.3h18.357v8.649h4.263V90.58a30.432,30.432,0,0,1-2.454,12.138,31.356,31.356,0,0,1-6.7,9.894,31.987,31.987,0,0,1-9.917,6.665A30.437,30.437,0,0,1-5312.53,121.73Zm-16.47-6.939a29.313,29.313,0,0,0,4.709,2.591,29.138,29.138,0,0,0,11.761,2.348,28.447,28.447,0,0,0,11.345-2.29,30,30,0,0,0,9.3-6.248,29.37,29.37,0,0,0,6.273-9.267,28.448,28.448,0,0,0,2.29-11.345V87.257h-4.263V78.608h-16.357a17.574,17.574,0,0,1-7.1-1.465,18.868,18.868,0,0,1-5.8-3.933,18.425,18.425,0,0,1-3.906-5.808,17.778,17.778,0,0,1-1.4-6.064,15.6,15.6,0,0,0-5.356,1.243c-.512.221-1.012.467-1.493.731V82.284a5.144,5.144,0,0,1,3.558-1.351,5.135,5.135,0,0,1,3.739,1.584,5.131,5.131,0,0,1,1.584,3.739V90.58a5.038,5.038,0,0,1-1.593,3.719,5.186,5.186,0,0,1-3.731,1.546A5.159,5.159,0,0,1-5329,94.464Zm3.558-31.858a3.181,3.181,0,0,0-2.357.969,3.179,3.179,0,0,0-.968,2.355V90.58a3.066,3.066,0,0,0,.99,2.288,3.211,3.211,0,0,0,2.335.977,3.207,3.207,0,0,0,2.333-.977,3.066,3.066,0,0,0,.99-2.288V86.257a3.158,3.158,0,0,0-1-2.325A3.161,3.161,0,0,0-5325.442,82.933Zm87.3,34.534h-10.649V57.048h-37.26l-.3-.378a35.946,35.946,0,0,0-4.528-4.733,27.424,27.424,0,0,0-5.36-3.651l.461-1.887h57.636Zm-8.649-2h6.649V48.4h-52.038a29.417,29.417,0,0,1,2.615,2.03,37.993,37.993,0,0,1,4.476,4.619h38.3Zm-12.913,2h-32.555l1.937-1.743a34.79,34.79,0,0,0,6.832-8.408l.289-.5h23.5Zm-27.47-2h25.47v-6.649h-20.351A36.709,36.709,0,0,1-5287.169,115.467Zm-25.36-2.325a11.851,11.851,0,0,1-2.565-.355,16.472,16.472,0,0,1-3.039-1.023,10.527,10.527,0,0,1-2.686-1.695,3.581,3.581,0,0,1-1.359-2.731,2.927,2.927,0,0,1,.943-2.166,3.077,3.077,0,0,1,2.159-.876,2.864,2.864,0,0,1,1.7.615c.371.273.8.564,1.267.864a10.894,10.894,0,0,0,1.6.824,5.109,5.109,0,0,0,1.981.341,5.156,5.156,0,0,0,1.961-.345,11.821,11.821,0,0,0,1.659-.828c.489-.3.92-.589,1.282-.855a2.864,2.864,0,0,1,1.7-.615,2.982,2.982,0,0,1,2.149.894,2.978,2.978,0,0,1,.893,2.148,3.6,3.6,0,0,1-1.372,2.773,11.221,11.221,0,0,1-2.636,1.65,15.513,15.513,0,0,1-3.049,1.028A12.269,12.269,0,0,1-5312.53,113.142Zm-6.547-6.847a1.059,1.059,0,0,0-.78.324.915.915,0,0,0-.322.718,1.664,1.664,0,0,0,.682,1.231,8.543,8.543,0,0,0,2.179,1.369,14.484,14.484,0,0,0,2.668.9,10.131,10.131,0,0,0,2.12.3,10.568,10.568,0,0,0,2.154-.306,13.5,13.5,0,0,0,2.655-.9,9.234,9.234,0,0,0,2.168-1.352,1.568,1.568,0,0,0,.67-1.252.968.968,0,0,0-.307-.734.97.97,0,0,0-.735-.308,1,1,0,0,0-.518.226c-.406.3-.883.617-1.419.947a13.816,13.816,0,0,1-1.944.974,7.134,7.134,0,0,1-2.724.5,7.07,7.07,0,0,1-2.762-.5,12.851,12.851,0,0,1-1.891-.979c-.506-.323-.969-.639-1.376-.938A1,1,0,0,0-5319.077,106.3Zm6.547-6.126a5.156,5.156,0,0,1-3.771-1.554,5.155,5.155,0,0,1-1.554-3.769v-1h10.588v1a5.182,5.182,0,0,1-1.546,3.731A5.036,5.036,0,0,1-5312.53,100.169Zm-3.186-4.324a3.191,3.191,0,0,0,.829,1.355,3.181,3.181,0,0,0,2.357.968,3.065,3.065,0,0,0,2.287-.99,3.347,3.347,0,0,0,.827-1.334Zm16.158,0a5.188,5.188,0,0,1-3.732-1.546,5.042,5.042,0,0,1-1.593-3.719V86.257a5.155,5.155,0,0,1,1.554-3.769,5.156,5.156,0,0,1,3.771-1.554,5.154,5.154,0,0,1,3.769,1.554,5.153,5.153,0,0,1,1.555,3.769V90.58a5.038,5.038,0,0,1-1.593,3.719A5.187,5.187,0,0,1-5299.557,95.845Zm0-12.912a3.181,3.181,0,0,0-2.357.968,3.18,3.18,0,0,0-.968,2.355V90.58a3.07,3.07,0,0,0,.991,2.289,3.208,3.208,0,0,0,2.334.976,3.208,3.208,0,0,0,2.333-.977,3.065,3.065,0,0,0,.99-2.288V86.257a3.178,3.178,0,0,0-.969-2.355A3.178,3.178,0,0,0-5299.557,82.933Z" transform="translate(7068 1561)" fill="#50d8d7"/>
    <text id="WR_COACHING" data-name="WR COACHING" transform="translate(1371 1628)" fill="#50d8d7" font-size="45" font-family="NirmalaUI-Bold, Nirmala UI" font-weight="700"><tspan x="0" y="49">WR COACHING</tspan></text>
  </g>
</svg>
