<svg xmlns="http://www.w3.org/2000/svg" width="218.79" height="191" viewBox="0 0 458.79 191">
  <g id="Group_16" data-name="Group 16" transform="translate(-1349 -1864)">
    <path id="Union_9" data-name="Union 9" d="M-5693,194a25,25,0,0,1-25-25V30a25,25,0,0,1,25-25h309a25,25,0,0,1,25,25V49.44h97.79V170.728h-97.849A25,25,0,0,1-5384,194Zm424.2-30.866V57.034H-5359V113.11l6.822-6.823,15.135,15.135q11.021-11.18,21.911-22.2t22.174-21.937c.211-.211.44-.422.686-.633a3.8,3.8,0,0,0,.633-.686l7.7,7.594q-13.393,13.341-26.578,26.5t-26.525,26.551q-10.954-11-21.958-21.961v48.486Z" transform="translate(7068 1860)" fill="#090539"/>
    <path id="Union_9_-_Outline" data-name="Union 9 - Outline" d="M-5384,195h-309a25.838,25.838,0,0,1-10.121-2.044,25.913,25.913,0,0,1-8.264-5.572,25.909,25.909,0,0,1-5.572-8.264A25.838,25.838,0,0,1-5719,169V30a25.842,25.842,0,0,1,2.043-10.121,25.91,25.91,0,0,1,5.572-8.264,25.912,25.912,0,0,1,8.264-5.572A25.838,25.838,0,0,1-5693,4h309a25.834,25.834,0,0,1,10.121,2.044,25.908,25.908,0,0,1,8.264,5.572,25.916,25.916,0,0,1,5.571,8.264A25.842,25.842,0,0,1-5358,30V48.44h97.79V171.728h-97.931a25.891,25.891,0,0,1-8.077,16.241A25.9,25.9,0,0,1-5384,195ZM-5693,6a24.027,24.027,0,0,0-24,24V169a24.027,24.027,0,0,0,24,24h309a24.056,24.056,0,0,0,23.943-22.34l.063-.932h97.783V50.44H-5360V30a24.027,24.027,0,0,0-24-24Zm425.2,158.134H-5360V56.034h92.2Zm-90.2-2h88.2V58.034H-5358V110.7l5.822-5.823,15.13,15.13c6.882-6.982,14.012-14.206,21.2-21.485,7.236-7.323,14.7-14.707,22.184-21.946.221-.221.469-.45.737-.679a2.813,2.813,0,0,0,.469-.506l.681-.958,9.254,9.128-.715.712c-9.542,9.506-18.236,18.174-26.577,26.5-8.781,8.763-17.7,17.7-26.523,26.549l-.708.711-.708-.712c-6.687-6.718-13.491-13.524-20.249-20.259Zm-.355-48.255.061.06c7.082,7.052,14.228,14.2,21.252,21.252,8.589-8.621,17.272-17.312,25.818-25.842,8.133-8.117,16.6-16.56,25.864-25.788l-6.248-6.163-.013.011c-.229.2-.442.393-.629.58l-.012.012c-7.476,7.232-14.931,14.607-22.158,21.921-7.438,7.528-14.81,15-21.91,22.2l-.707.717-.712-.712-14.428-14.428Z" transform="translate(7068 1860)" fill="#50d8d7"/>
    <text id="PLACEMENTS" transform="translate(1387 1934)" fill="#50d8d7" font-size="44" font-family="NirmalaUI-Bold, Nirmala UI" font-weight="700"><tspan x="0" y="47">PLACEMENTS</tspan></text>
  </g>
</svg>
