<svg xmlns="http://www.w3.org/2000/svg" width="303.001" height="229" viewBox="0 0 303.001 229"><defs><style>.a{fill:none;stroke:#50d8d7;stroke-width:4px;}</style></defs><path class="a" d="M285.5,225H13.5A13.5,13.5,0,0,1,0,211.5V13.5A13.5,13.5,0,0,1,13.5,0h272A13.5,13.5,0,0,1,299,13.5v198A13.5,13.5,0,0,1,285.5,225ZM82.806,84.668,54.171,113.3l70.82,70.82L247.843,61.362c-4.665-4.845-9.482-9.663-14.317-14.318s-9.639-9.458-14.318-14.317c-15.691,15.751-31.526,31.6-47.063,47.108-15.19,15.161-31.055,30.98-47.154,47.018L82.806,84.668Z" transform="translate(2 2)"/></svg>