<svg xmlns="http://www.w3.org/2000/svg" xmlns:xlink="http://www.w3.org/1999/xlink" width="328.001" height="209" viewBox="0 0 328.001 247"><defs><style>.a{fill:none;stroke:#50d8d7;stroke-width:4px;}.b{filter:url(#a);}</style><filter id="a" x="0" y="0" width="328.001" height="247" filterUnits="userSpaceOnUse"><feOffset dx="16" dy="3" input="SourceAlpha"/><feGaussianBlur stdDeviation="3" result="b"/><feFlood flood-opacity="0.161"/><feComposite operator="in" in2="b"/><feComposite in="SourceGraphic"/></filter></defs><g class="b" transform="matrix(1, 0, 0, 1, 0, 0)"><path class="a" d="M285.5,225H13.5A13.5,13.5,0,0,1,0,211.5V13.5A13.5,13.5,0,0,1,13.5,0h272A13.5,13.5,0,0,1,299,13.5v198A13.5,13.5,0,0,1,285.5,225ZM175.206,132.46h0c-.293.294-.548.565-.76.8a5.909,5.909,0,0,1-.768.723c-1.391,1.332-2.683,2.623-3.839,3.839a24.278,24.278,0,0,0-3.027,3.884,19.621,19.621,0,0,0-2.032,4.471,18.741,18.741,0,0,0-.768,5.6v34.688A17.186,17.186,0,0,0,158.5,195.1a41.579,41.579,0,0,0-1.174,9.982c0,1.431.031,2.905.091,4.381.06,1.46.09,2.965.09,4.471h97.378V194.421a20.742,20.742,0,0,0-.723-5.33c-.12-.3-.327-.979-.633-2.077-.3-1.072-.652-2.313-1.084-3.793-.421-1.444-.877-2.979-1.355-4.562s-.92-3.092-1.309-4.471-.723-2.56-.994-3.523a13.7,13.7,0,0,1-.407-1.625c-.18-2.407-.271-4.565-.271-6.414,0-1.924.046-3.839.136-5.691s.135-4.046.135-6.5V113.3A29.015,29.015,0,0,0,239.8,92.616L213.878,66.692a26.817,26.817,0,0,0-5.329-4.11,33.457,33.457,0,0,0-6.143-2.846,38.345,38.345,0,0,0,.451-4.426c.06-1.445.091-2.935.091-4.426V48.354a28.27,28.27,0,0,0-2.3-11.291A29.436,29.436,0,0,0,185.063,21.48a28.292,28.292,0,0,0-11.291-2.3,28.75,28.75,0,0,0-12.647,2.89,29.378,29.378,0,0,0-10.117,8.04,29.372,29.372,0,0,0-10.118-8.04,28.749,28.749,0,0,0-12.646-2.89,28.2,28.2,0,0,0-11.337,2.3A29.693,29.693,0,0,0,101.37,37.017a28.181,28.181,0,0,0-2.3,11.337v6.5A21.241,21.241,0,0,0,99.2,57.3c.087.756.19,1.554.316,2.439a32.142,32.142,0,0,0-6.1,2.846,27.448,27.448,0,0,0-5.284,4.11L62.211,92.616A28.53,28.53,0,0,0,53.629,113.3V150.43c0,2.457.045,4.646.135,6.5s.136,3.766.136,5.691c0,1.862-.091,4.02-.271,6.414a13.688,13.688,0,0,1-.407,1.625q-.406,1.446-.994,3.523c-.39,1.379-.83,2.883-1.31,4.471s-.933,3.115-1.355,4.562-.8,2.732-1.129,3.793c-.33,1.08-.528,1.779-.588,2.077a20.743,20.743,0,0,0-.723,5.33v19.512H144.5V200.925a19.348,19.348,0,0,0-6.5-14.453V151.784a18.226,18.226,0,0,0-.9-6.007,20.13,20.13,0,0,0-2.394-4.743,28.19,28.19,0,0,0-3.523-4.155c-1.34-1.31-2.784-2.768-4.291-4.335A19.111,19.111,0,0,0,138,136.066h26.016a18.8,18.8,0,0,0,5.872-.949A20.165,20.165,0,0,0,175.206,132.46Zm66.675,68.465H222.459a6.2,6.2,0,0,1,1.807-4.471,6.29,6.29,0,0,1,4.426-1.942L224.9,181.5h13.55c.178.714.466,1.686.858,2.891s.788,2.455,1.174,3.7.724,2.476.994,3.613a12.6,12.6,0,0,1,.407,2.71v6.5Zm-51.941,0H170.519a6.347,6.347,0,0,1,1.9-4.562,6.126,6.126,0,0,1,4.517-1.942V181.5h13.008v19.421Zm-58.445,0H112.074V181.5h12.917v12.918a6.636,6.636,0,0,1,6.5,6.5Zm-51.941,0H60.133v-6.5a12.6,12.6,0,0,1,.407-2.71c.269-1.137.6-2.353.994-3.613s.781-2.492,1.174-3.7.678-2.17.859-2.891H77.025l-3.7,13.009a6.291,6.291,0,0,1,4.426,1.942,6.192,6.192,0,0,1,1.807,4.47Zm157-25.925H223.092l-5.6-19.512h17.886c0,1.68-.015,3.382-.045,5.059-.03,1.7-.045,3.428-.045,5.149v2.574c0,.874.03,1.74.09,2.575a4.568,4.568,0,0,0,.181.678c.122.4.243.836.361,1.309s.256.948.407,1.4a5.436,5.436,0,0,1,.226.767Zm-46.611,0H176.933V151.784a6.345,6.345,0,0,1,1.987-4.607l6.5-6.5,12.918,12.917-8.4,8.4V175Zm-64.949,0H112.074V161.992l-8.4-8.4,12.918-12.917,6.5,6.5a6.3,6.3,0,0,1,1.9,4.607V175Zm-46.069,0H65.462a5.4,5.4,0,0,1,.226-.768c.151-.452.287-.924.407-1.4.124-.5.242-.925.361-1.309a4.562,4.562,0,0,0,.181-.678c.06-.835.09-1.7.09-2.575V165.7c0-1.772-.015-3.5-.045-5.149-.03-1.7-.045-3.4-.045-5.059H84.523L78.922,175Zm156.455-26.014H215.956V136.066c-2.268,2.029-4.487,4.172-6.594,6.368s-4.271,4.407-6.413,6.549l-13.008-12.918,14.543-14.543-13.55-13.55,14.724-14.724a13.033,13.033,0,0,0,3.793-9.123,13.173,13.173,0,0,0-.723-4.155c1.8,1.563,3.566,3.25,5.24,5.013s3.405,3.541,5.149,5.285c1.937,1.937,3.9,3.866,5.827,5.736,1.954,1.9,3.884,3.856,5.736,5.827a18.547,18.547,0,0,1,3.478,5.285,15.6,15.6,0,0,1,1.219,6.188v35.681Zm-149.319,0H66.637V116.645c0-1.425.03-2.823.09-4.155a17.3,17.3,0,0,1,.588-3.794,16.138,16.138,0,0,1,1.445-3.523,15.154,15.154,0,0,1,2.574-3.343L97.349,75.815a15.6,15.6,0,0,1,5.33-3.523,16.708,16.708,0,0,1,6.142-1.174,16.192,16.192,0,0,1,5.737,1.039,15.474,15.474,0,0,1,4.878,2.936A17.667,17.667,0,0,1,123,79.519a15.84,15.84,0,0,1,1.9,5.51c-1.019-.958-1.976-1.9-2.846-2.8a17.1,17.1,0,0,0-2.8-2.349,15.338,15.338,0,0,0-3.207-1.625,11.5,11.5,0,0,0-3.974-.633,12.82,12.82,0,0,0-9.169,3.749,13.488,13.488,0,0,0-2.8,4.109,12.4,12.4,0,0,0-1.039,5.059,13.035,13.035,0,0,0,3.794,9.214l8.221,8.22-13.55,13.55,14.544,14.543L99.067,148.984,86.058,136.066v12.918Zm77.957-25.926H138a6.708,6.708,0,0,1-4.606-1.9c-2.935-2.7-5.929-5.643-8.9-8.762s-5.937-6.163-8.807-9.033l-8.22-8.22a6.2,6.2,0,0,1-1.9-4.517,6.515,6.515,0,0,1,11.11-4.606l24.029,24.028h9.755a6.22,6.22,0,0,1-4.245-2.033,6.553,6.553,0,0,1,.181-9.033,6.227,6.227,0,0,1,4.607-1.941h23.306l17.524-17.525a6.521,6.521,0,0,1,4.788-1.9,6.048,6.048,0,0,1,4.471,1.9,6.268,6.268,0,0,1,1.852,4.516,6.709,6.709,0,0,1-1.9,4.607c-2.34,2.521-4.772,5.013-7.227,7.407l-1.214,1.185-6.283,6.132c-.839.779-1.645,1.585-2.394,2.394s-1.554,1.614-2.394,2.394a6.708,6.708,0,0,1-4.606,1.9H164.557a6.214,6.214,0,0,1,4.245,2.032,6.369,6.369,0,0,1,1.716,4.471,6.635,6.635,0,0,1-6.5,6.5Zm6.684-32.52H131.314a19.806,19.806,0,0,0,.271-3.252,22.172,22.172,0,0,0-2.258-9.666h43.359a22.171,22.171,0,0,0-2.258,9.666,19.813,19.813,0,0,0,.271,3.251Zm6.413-5.511v0a15.839,15.839,0,0,1,1.9-5.507,17.675,17.675,0,0,1,3.568-4.426,15.463,15.463,0,0,1,4.877-2.936,16.192,16.192,0,0,1,5.737-1.039h.858a4.4,4.4,0,0,1,.859.09,11.224,11.224,0,0,0-5.1,1.852,32.564,32.564,0,0,0-4.562,3.658c-1.441,1.382-2.855,2.856-4.2,4.38a40.266,40.266,0,0,1-3.927,3.928Zm-3.342-13.91a16.108,16.108,0,0,1-6.323-1.264,16.108,16.108,0,0,1-8.672-8.672,16.107,16.107,0,0,1-1.264-6.323c0-1.364-.015-2.762-.045-4.155s-.045-2.792-.045-4.155a2.883,2.883,0,0,1,.361-1.445h12.737l7.408,7.5a2.768,2.768,0,0,1,2.258-.994,3.239,3.239,0,0,1,3.252,3.252,3.61,3.61,0,0,1-.9,2.349l5.421,5.42a16.188,16.188,0,0,1-14.182,8.491Zm-45.437,0a16.087,16.087,0,0,1-8.311-2.3,15.765,15.765,0,0,1-5.962-6.188l5.42-5.42a3.615,3.615,0,0,1-.9-2.349,3.2,3.2,0,0,1,5.511-2.258l7.407-7.5h12.647a13.53,13.53,0,0,1,.361,3.253v6.5a16.092,16.092,0,0,1-1.264,6.323,16.22,16.22,0,0,1-8.626,8.672A15.785,15.785,0,0,1,128.334,71.118Z" transform="translate(2 8)"/></g></svg>