<svg xmlns="http://www.w3.org/2000/svg" width="285.225" height="206.121" viewBox="0 0 485.225 206.121">
  <defs>
    <style>
      .cls-1 {
        fill: #090539;
      }

      .cls-2 {
        fill: #50d8d7;
      }
    </style>
  </defs>
  <g transform="translate(10.002 -1106.293)">
    <path id="Union_3" data-name="Union 3" class="cls-1" d="M420.689,182.417a71.234,71.234,0,0,1-7.336-9.148,46.711,46.711,0,0,1-5.061-9.922,39.98,39.98,0,0,1-2.259-11.4,25.011,25.011,0,0,1-23.991,17.945H25a25,25,0,0,1-25-25V30.148a25,25,0,0,1,25-25H382.042A25.009,25.009,0,0,1,405.079,20.42,95.06,95.06,0,0,1,423.385-5.188l6.364-6.364,6.364,6.364A95.56,95.56,0,0,1,448.089,9.4a94.384,94.384,0,0,1,8.772,16.462,97.018,97.018,0,0,1,5.414,17.877,95.088,95.088,0,0,1,1.856,18.782V86.383l19.048,19.048.044,31.775H460.685l-7.2,14.451a40.243,40.243,0,0,1-1.679,9.812,44.786,44.786,0,0,1-3.712,8.706,55.228,55.228,0,0,1-5.348,7.867,95.472,95.472,0,0,1-6.629,7.336l-6.364,6.364Q424.888,186.88,420.689,182.417Zm-5.148-26.052a35.754,35.754,0,0,0,3.137,8.353,45.354,45.354,0,0,0,5.016,7.579,88.782,88.782,0,0,0,6.055,6.718A88.963,88.963,0,0,0,435.8,172.3a45.3,45.3,0,0,0,5.016-7.579,35.757,35.757,0,0,0,3.138-8.353,25.559,25.559,0,0,0,.464-9.082H437.7a23.71,23.71,0,0,1-.508,5.413,24.294,24.294,0,0,1-1.614,4.883,28.684,28.684,0,0,1-2.541,4.486q-1.481,2.142-3.292,4.308-1.813-2.165-3.293-4.308a28.829,28.829,0,0,1-2.541-4.486A24.292,24.292,0,0,1,422.3,152.7a23.658,23.658,0,0,1-.509-5.413h-6.718A25.539,25.539,0,0,0,415.541,156.364Zm44.128-28.129,14.54-.044v-19L459.624,94.6Zm-4.508,0V62.474a86.341,86.341,0,0,0-.928-12.64,90.894,90.894,0,0,0-2.74-12.418H408.005q-.518,1.755-.963,3.52v87.3Zm-5.216-95.283a86.311,86.311,0,0,0-20.2-31.775,87.869,87.869,0,0,0-11.888,14.761,81.976,81.976,0,0,0-8.309,17.015q10.1-.022,20.2-.022T449.945,32.952Zm-21.787,93.736a2.221,2.221,0,0,1-.663-1.635l.044-31.775a2.122,2.122,0,0,1,.663-1.547,2.244,2.244,0,0,1,3.093,0,2.122,2.122,0,0,1,.663,1.547L432,125.052a2.221,2.221,0,0,1-.663,1.635,2.353,2.353,0,0,1-3.182,0Zm-3.469-49.519a13.348,13.348,0,0,1-7.38-7.381,13.963,13.963,0,0,1-1.017-5.082,13.317,13.317,0,0,1,.973-5.082,13.421,13.421,0,0,1,7.4-7.4,13.773,13.773,0,0,1,10.165,0,13.429,13.429,0,0,1,7.4,7.4,13.333,13.333,0,0,1,.972,5.082,13.962,13.962,0,0,1-1.016,5.082,13.354,13.354,0,0,1-7.381,7.381,13.382,13.382,0,0,1-10.12,0ZM426.368,56.4a8.885,8.885,0,0,0-4.95,4.95,9.318,9.318,0,0,0-.641,3.381,8.972,8.972,0,0,0,17.943,0,9.3,9.3,0,0,0-.641-3.381,8.878,8.878,0,0,0-4.95-4.95,9.239,9.239,0,0,0-6.762,0Z" transform="translate(-9.002 1119.259)"/>
    <path id="Union_3_-_Outline" data-name="Union 3 - Outline" class="cls-2" d="M429.749,193.156l-.707-.707c-3.247-3.247-6.3-6.392-9.082-9.347a72.567,72.567,0,0,1-7.438-9.276,47.932,47.932,0,0,1-5.169-10.133,38.356,38.356,0,0,1-1.884-7.511,25.97,25.97,0,0,1-23.428,14.71H25a25.979,25.979,0,0,1-26-26V30.148a25.98,25.98,0,0,1,26-26H382.042a26.009,26.009,0,0,1,23.065,13.986A96.085,96.085,0,0,1,422.678-5.895l7.071-7.071,7.071,7.071a97.011,97.011,0,0,1,12.1,14.737,95.827,95.827,0,0,1,8.865,16.636,98.472,98.472,0,0,1,5.47,18.06,96.537,96.537,0,0,1,1.875,18.979V85.969l19.047,19.047.046,33.19H461.3l-6.835,13.712a41.33,41.33,0,0,1-1.711,9.845,45.99,45.99,0,0,1-3.8,8.9,56.5,56.5,0,0,1-5.444,8.009,96.944,96.944,0,0,1-6.7,7.413Zm-24.676-41.491,1.958.221a39.176,39.176,0,0,0,2.2,11.117,45.928,45.928,0,0,0,4.953,9.71,70.562,70.562,0,0,0,7.233,9.019c2.563,2.725,5.363,5.614,8.333,8.6l5.656-5.656a94.905,94.905,0,0,0,6.559-7.259,54.485,54.485,0,0,0,5.251-7.725,43.986,43.986,0,0,0,3.63-8.512,39.428,39.428,0,0,0,1.636-9.569l.011-.208.093-.187,7.48-15.005h22.156l-.042-30.361L463.132,86.8V62.518A94.537,94.537,0,0,0,461.3,43.933a96.477,96.477,0,0,0-5.359-17.693,93.831,93.831,0,0,0-8.68-16.288A95.007,95.007,0,0,0,435.406-4.481l-5.657-5.657L424.092-4.48a94.06,94.06,0,0,0-18.115,25.339l-.964,1.976-.856-2.025A23.968,23.968,0,0,0,382.042,6.148H25a24.027,24.027,0,0,0-24,24V144.891a24.027,24.027,0,0,0,24,24H382.042A24.127,24.127,0,0,0,405.073,151.664Zm24.676,28.764-.707-.707a90.2,90.2,0,0,1-6.124-6.793,46.558,46.558,0,0,1-5.126-7.746,36.929,36.929,0,0,1-3.225-8.586,26.655,26.655,0,0,1-.484-9.435l.107-.879h8.619l-.016,1.016a22.775,22.775,0,0,0,.486,5.185,23.415,23.415,0,0,0,1.547,4.684,27.967,27.967,0,0,0,2.453,4.331c.755,1.092,1.583,2.2,2.47,3.3.887-1.1,1.715-2.209,2.47-3.3a27.814,27.814,0,0,0,2.452-4.33,23.41,23.41,0,0,0,1.548-4.683,22.823,22.823,0,0,0,.485-5.186l-.016-1.016h8.619l.107.879a26.676,26.676,0,0,1-.483,9.435,36.925,36.925,0,0,1-3.226,8.586,46.508,46.508,0,0,1-5.126,7.746,90.393,90.393,0,0,1-6.122,6.793Zm-13.773-32.145a24.418,24.418,0,0,0,.537,7.85,34.924,34.924,0,0,0,3.05,8.12,44.553,44.553,0,0,0,4.906,7.412c1.7,2.082,3.469,4.072,5.28,5.926,1.811-1.856,3.584-3.846,5.279-5.926a44.51,44.51,0,0,0,4.905-7.412,34.921,34.921,0,0,0,3.051-8.12,24.439,24.439,0,0,0,.536-7.85H438.7a24.216,24.216,0,0,1-.528,4.626,25.411,25.411,0,0,1-1.68,5.084,29.815,29.815,0,0,1-2.629,4.642c-1,1.451-2.129,2.925-3.348,4.382l-.767.916-.767-.916c-1.218-1.455-2.345-2.929-3.349-4.382A29.967,29.967,0,0,1,423,157.992a25.414,25.414,0,0,1-1.679-5.084,24.162,24.162,0,0,1-.529-4.626Zm42.693-19.045-.049-37.053,16.588,16.588v20.415Zm1.957-32.218.04,30.212,12.541-.038V109.6Zm-4.466,32.215H406.042V40.812l.03-.12c.3-1.185.626-2.382.974-3.559l.211-.717H452.24l.212.717a92.334,92.334,0,0,1,2.771,12.555,87.758,87.758,0,0,1,.939,12.786Zm-23.964-2h21.964V62.474a85.74,85.74,0,0,0-.917-12.493,90.272,90.272,0,0,0-2.5-11.564H408.756c-.251.879-.491,1.765-.714,2.645v86.174H427.3a3.2,3.2,0,0,1-.806-2.182l.044-31.777a3.21,3.21,0,0,1,6.42,0L433,125.051A3.2,3.2,0,0,1,432.2,127.235Zm-2.448-35.123a1.1,1.1,0,0,0-.84.325,1.122,1.122,0,0,0-.37.84l-.044,31.777a1.216,1.216,0,0,0,.37.927,1.36,1.36,0,0,0,1.767,0,1.218,1.218,0,0,0,.371-.929l-.044-31.774a1.123,1.123,0,0,0-.371-.842A1.1,1.1,0,0,0,429.749,92.112Zm0-12.949a14.645,14.645,0,0,1-5.43-1.064,14.348,14.348,0,0,1-7.94-7.94,15.023,15.023,0,0,1-1.088-5.443,14.373,14.373,0,0,1,1.044-5.461A14.42,14.42,0,0,1,424.3,51.29a14.773,14.773,0,0,1,10.9,0,14.428,14.428,0,0,1,7.966,7.963,14.389,14.389,0,0,1,1.043,5.461,15.023,15.023,0,0,1-1.087,5.444,14.353,14.353,0,0,1-7.94,7.94A14.636,14.636,0,0,1,429.749,79.162Zm0-26.914a12.855,12.855,0,0,0-4.717.9,12.422,12.422,0,0,0-6.839,6.841,12.385,12.385,0,0,0-.9,4.7,13.03,13.03,0,0,0,.946,4.721,12.348,12.348,0,0,0,6.821,6.822,12.382,12.382,0,0,0,9.38,0,12.353,12.353,0,0,0,6.822-6.822,13.031,13.031,0,0,0,.945-4.72,12.4,12.4,0,0,0-.9-4.7,12.43,12.43,0,0,0-6.839-6.841A12.861,12.861,0,0,0,429.749,52.249Zm0,22.45a10,10,0,0,1-9.972-9.971,10.357,10.357,0,0,1,.708-3.741,9.885,9.885,0,0,1,5.522-5.522,10.239,10.239,0,0,1,7.483,0,9.877,9.877,0,0,1,5.522,5.522,10.34,10.34,0,0,1,.708,3.742,10,10,0,0,1-9.971,9.971Zm0-17.943a8.365,8.365,0,0,0-3.021.574,7.886,7.886,0,0,0-4.377,4.378,8.363,8.363,0,0,0-.573,3.021,7.972,7.972,0,0,0,15.943,0,8.346,8.346,0,0,0-.573-3.021,7.878,7.878,0,0,0-4.378-4.378A8.355,8.355,0,0,0,429.749,56.756Zm21.624-22.8-1.43,0c-6.719-.014-13.514-.022-20.194-.022s-13.475.007-20.194.022l-1.417,0,.471-1.336a83.364,83.364,0,0,1,8.41-17.221A89.282,89.282,0,0,1,429.042.469l.707-.707.707.707a87.312,87.312,0,0,1,20.429,32.141ZM429.749,2.6A87.243,87.243,0,0,0,418.7,16.477a81.306,81.306,0,0,0-7.723,15.472c6.253-.012,12.56-.019,18.769-.019s12.507.006,18.756.019A85.242,85.242,0,0,0,429.749,2.6Z" transform="translate(-9.002 1119.259)"/>
  </g>
</svg>
